adventpro-Thin.ufo
<glyph name="dollar" format="1">
  <advance width="523"/>
  <unicode hex="0024"/>
  <outline>
    <contour>
      <point x="265" y="-113" type="line"/>
      <point x="265" y="815" type="line"/>
      <point x="284" y="815" type="line"/>
      <point x="284" y="-113" type="line"/>
    </contour>
    <component base="S"/>
  </outline>
</glyph>
<glyph name="period" format="1">
  <advance width="102"/>
  <unicode hex="002E"/>
  <outline>
    <contour>
      <point x="51" y="30" type="qcurve" smooth="yes"/>
      <point x="59" y="30"/>
      <point x="69" y="20"/>
      <point x="69" y="13" type="qcurve" smooth="yes"/>
      <point x="69" y="6"/>
      <point x="59" y="-4"/>
      <point x="51" y="-4" type="qcurve" smooth="yes"/>
      <point x="45" y="-4"/>
      <point x="35" y="6"/>
      <point x="35" y="13" type="qcurve" smooth="yes"/>
      <point x="35" y="20"/>
      <point x="45" y="30"/>
    </contour>
  </outline>
</glyph>
<glyph name="two" format="1">
  <advance width="412"/>
  <unicode hex="0032"/>
  <outline>
    <contour>
      <point x="40" y="588" type="line"/>
      <point x="62" y="648"/>
      <point x="150" y="708"/>
      <point x="218" y="708" type="qcurve" smooth="yes"/>
      <point x="260" y="708"/>
      <point x="334" y="665"/>
      <point x="380" y="592"/>
      <point x="379" y="546" type="qcurve" smooth="yes"/>
      <point x="378" y="514"/>
      <point x="354" y="446"/>
      <point x="331" y="411" type="qcurve"/>
      <point x="296" y="362"/>
      <point x="220" y="256"/>
      <point x="120" y="118"/>
      <point x="50" y="20" type="qcurve"/>
      <point x="377" y="20" type="line"/>
      <point x="377" y="0" type="line"/>
      <point x="28" y="0" type="line"/>
      <point x="28" y="20" type="line"/>
      <point x="100" y="120"/>
      <point x="244" y="320"/>
      <point x="317" y="422" type="qcurve" smooth="yes"/>
      <point x="331" y="443"/>
      <point x="349" y="483"/>
      <point x="359" y="523"/>
      <point x="359" y="541" type="qcurve"/>
      <point x="360" y="582"/>
      <point x="321" y="649"/>
      <point x="254" y="689"/>
      <point x="212" y="689" type="qcurve" smooth="yes"/>
      <point x="148" y="689"/>
      <point x="73" y="627"/>
      <point x="59" y="581" type="qcurve"/>
    </contour>
  </outline>
</glyph>
<glyph name="three" format="1">
  <advance width="439"/>
  <unicode hex="0033"/>
  <outline>
    <contour>
      <point x="200" y="413" type="line" smooth="yes"/>
      <point x="244" y="413"/>
      <point x="320" y="381"/>
      <point x="350" y="350" type="qcurve" smooth="yes"/>
      <point x="412" y="288"/>
      <point x="412" y="199" type="qcurve" smooth="yes"/>
      <point x="412" y="110"/>
      <point x="350" y="50" type="qcurve"/>
      <point x="290" y="-12"/>
      <point x="200" y="-12" type="qcurve" smooth="yes"/>
      <point x="146" y="-12"/>
      <point x="53" y="39"/>
      <point x="24" y="82" type="qcurve"/>
      <point x="41" y="94" type="line"/>
      <point x="70" y="51"/>
      <point x="147" y="7"/>
      <point x="194" y="7" type="qcurve" smooth="yes"/>
      <point x="241" y="7"/>
      <point x="314" y="36"/>
      <point x="340" y="67" type="qcurve" smooth="yes"/>
      <point x="367" y="97"/>
      <point x="393" y="167"/>
      <point x="393" y="207" type="qcurve" smooth="yes"/>
      <point x="393" y="248"/>
      <point x="364" y="313"/>
      <point x="335" y="338" type="qcurve" smooth="yes"/>
      <point x="305" y="364"/>
      <point x="241" y="393"/>
      <point x="206" y="393" type="qcurve" smooth="yes"/>
      <point x="120" y="393" type="line"/>
      <point x="333" y="678" type="line"/>
      <point x="68" y="678" type="line"/>
      <point x="68" y="698" type="line"/>
      <point x="357" y="698" type="line"/>
      <point x="357" y="678" type="line"/>
      <point x="157" y="413" type="line"/>
    </contour>
  </outline>
</glyph>
<glyph name="eight" format="1">
  <advance width="468"/>
  <unicode hex="0038"/>
  <outline>
    <contour>
      <point x="234" y="707" type="qcurve" smooth="yes"/>
      <point x="308" y="707"/>
      <point x="354" y="658" type="qcurve" smooth="yes"/>
      <point x="378" y="633"/>
      <point x="401" y="572"/>
      <point x="401" y="536" type="qcurve" smooth="yes"/>
      <point x="401" y="484"/>
      <point x="368" y="440" type="qcurve" smooth="yes"/>
      <point x="354" y="422"/>
      <point x="314" y="393"/>
      <point x="289" y="385" type="qcurve"/>
      <point x="323" y="376"/>
      <point x="377" y="339"/>
      <point x="398" y="310" type="qcurve" smooth="yes"/>
      <point x="418" y="282"/>
      <point x="439" y="222"/>
      <point x="439" y="191" type="qcurve" smooth="yes"/>
      <point x="439" y="148"/>
      <point x="409" y="75"/>
      <point x="380" y="46" type="qcurve" smooth="yes"/>
      <point x="322" y="-12"/>
      <point x="234" y="-12" type="qcurve" smooth="yes"/>
      <point x="144" y="-12"/>
      <point x="85" y="46" type="qcurve" smooth="yes"/>
      <point x="56" y="75"/>
      <point x="26" y="148"/>
      <point x="26" y="191" type="qcurve" smooth="yes"/>
      <point x="26" y="223"/>
      <point x="47" y="284"/>
      <point x="68" y="311" type="qcurve" smooth="yes"/>
      <point x="88" y="339"/>
      <point x="146" y="376"/>
      <point x="175" y="385" type="qcurve"/>
      <point x="129" y="401"/>
      <point x="97" y="444" type="qcurve"/>
      <point x="83" y="467"/>
      <point x="67" y="513"/>
      <point x="67" y="536" type="qcurve" smooth="yes"/>
      <point x="67" y="608"/>
      <point x="114" y="658" type="qcurve" smooth="yes"/>
      <point x="162" y="707"/>
    </contour>
    <contour>
      <point x="234" y="391" type="qcurve" smooth="yes"/>
      <point x="271" y="391"/>
      <point x="334" y="424"/>
      <point x="354" y="451" type="qcurve" smooth="yes"/>
      <point x="368" y="470"/>
      <point x="382" y="514"/>
      <point x="382" y="539" type="qcurve" smooth="yes"/>
      <point x="382" y="580"/>
      <point x="342" y="647"/>
      <point x="275" y="687"/>
      <point x="234" y="687" type="qcurve" smooth="yes"/>
      <point x="193" y="687"/>
      <point x="125" y="647"/>
      <point x="85" y="580"/>
      <point x="85" y="539" type="qcurve" smooth="yes"/>
      <point x="85" y="488"/>
      <point x="117" y="448" type="qcurve" smooth="yes"/>
      <point x="138" y="423"/>
      <point x="198" y="391"/>
    </contour>
    <contour>
      <point x="233" y="5" type="qcurve" smooth="yes"/>
      <point x="285" y="5"/>
      <point x="369" y="55"/>
      <point x="420" y="139"/>
      <point x="420" y="189" type="qcurve" smooth="yes"/>
      <point x="420" y="221"/>
      <point x="400" y="276"/>
      <point x="382" y="299" type="qcurve" smooth="yes"/>
      <point x="357" y="333"/>
      <point x="279" y="373"/>
      <point x="233" y="373" type="qcurve" smooth="yes"/>
      <point x="189" y="373"/>
      <point x="113" y="336"/>
      <point x="87" y="305" type="qcurve" smooth="yes"/>
      <point x="68" y="282"/>
      <point x="46" y="222"/>
      <point x="46" y="189" type="qcurve" smooth="yes"/>
      <point x="46" y="139"/>
      <point x="96" y="55"/>
      <point x="181" y="5"/>
    </contour>
  </outline>
</glyph>
<glyph name="question" format="1">
  <advance width="407"/>
  <unicode hex="003F"/>
  <outline>
    <contour>
      <point x="25" y="530" type="line"/>
      <point x="25" y="591"/>
      <point x="77" y="670"/>
      <point x="158" y="708"/>
      <point x="202" y="707" type="qcurve" smooth="yes"/>
      <point x="246" y="706"/>
      <point x="326" y="667"/>
      <point x="378" y="591"/>
      <point x="378" y="536" type="qcurve" smooth="yes"/>
      <point x="378" y="481"/>
      <point x="336" y="408"/>
      <point x="304" y="373" type="qcurve" smooth="yes"/>
      <point x="274" y="341"/>
      <point x="234" y="298"/>
      <point x="209" y="263"/>
      <point x="199" y="222"/>
      <point x="199" y="193" type="qcurve" smooth="yes"/>
      <point x="199" y="181"/>
      <point x="199" y="146"/>
      <point x="199" y="119"/>
      <point x="199" y="119" type="qcurve"/>
      <point x="181" y="119" type="line"/>
      <point x="181" y="187" type="line" smooth="yes"/>
      <point x="181" y="227"/>
      <point x="197" y="279"/>
      <point x="228" y="319"/>
      <point x="271" y="362"/>
      <point x="297" y="393" type="qcurve" smooth="yes"/>
      <point x="319" y="420"/>
      <point x="347" y="464"/>
      <point x="360" y="509"/>
      <point x="360" y="535" type="qcurve" smooth="yes"/>
      <point x="360" y="576"/>
      <point x="321" y="646"/>
      <point x="250" y="689"/>
      <point x="202" y="689" type="qcurve" smooth="yes"/>
      <point x="164" y="689"/>
      <point x="91" y="655"/>
      <point x="44" y="585"/>
      <point x="44" y="530" type="qcurve"/>
    </contour>
    <contour>
      <point x="191" y="30" type="qcurve" smooth="yes"/>
      <point x="197" y="30"/>
      <point x="207" y="20"/>
      <point x="207" y="13" type="qcurve" smooth="yes"/>
      <point x="207" y="6"/>
      <point x="197" y="-4"/>
      <point x="191" y="-4" type="qcurve" smooth="yes"/>
      <point x="184" y="-4"/>
      <point x="173" y="6"/>
      <point x="173" y="13" type="qcurve" smooth="yes"/>
      <point x="173" y="20"/>
      <point x="184" y="30"/>
    </contour>
  </outline>
</glyph>
<glyph name="D" format="1">
  <advance width="494"/>
  <unicode hex="0044"/>
    <anchor name="top" x="247" y="735"/>
  <outline>
    <contour>
      <point x="229" y="698" type="line" smooth="yes"/>
      <point x="342" y="698"/>
      <point x="460" y="575"/>
      <point x="460" y="473" type="qcurve" smooth="yes"/>
      <point x="460" y="199" type="line" smooth="yes"/>
      <point x="460" y="100"/>
      <point x="355" y="0"/>
      <point x="249" y="0" type="qcurve" smooth="yes"/>
      <point x="41" y="0" type="line"/>
      <point x="41" y="698" type="line"/>
    </contour>
    <contour>
      <point x="239" y="20" type="line" smooth="yes"/>
      <point x="303" y="20"/>
      <point x="393" y="54"/>
      <point x="441" y="138"/>
      <point x="441" y="213" type="qcurve" smooth="yes"/>
      <point x="441" y="466" type="line" smooth="yes"/>
      <point x="441" y="529"/>
      <point x="396" y="625"/>
      <point x="307" y="678"/>
      <point x="239" y="678" type="qcurve" smooth="yes"/>
      <point x="60" y="678" type="line"/>
      <point x="60" y="20" type="line"/>
    </contour>
    <contour>
      <point x="247" y="735" type="move" name="top"/>
    </contour>
  </outline>
</glyph>
<glyph name="J" format="1">
  <advance width="177"/>
  <unicode hex="004A"/>
    <anchor name="top" x="88" y="735"/>
  <outline>
    <contour>
      <point x="136" y="122" type="line" smooth="yes"/>
      <point x="136" y="85"/>
      <point x="125" y="31"/>
      <point x="113" y="12" type="qcurve" smooth="yes"/>
      <point x="100" y="-8"/>
      <point x="61" y="-32"/>
      <point x="32" y="-37" type="qcurve"/>
      <point x="26" y="-19" type="line"/>
      <point x="71" y="-12"/>
      <point x="118" y="56"/>
      <point x="118" y="118" type="qcurve" smooth="yes"/>
      <point x="118" y="676" type="line"/>
      <point x="33" y="679" type="line"/>
      <point x="33" y="698" type="line"/>
      <point x="136" y="698" type="line"/>
    </contour>
    <contour>
      <point x="88" y="735" type="move" name="top"/>
    </contour>
  </outline>
</glyph>
<glyph name="P" format="1">
  <advance width="502"/>
  <unicode hex="0050"/>
  <outline>
    <contour>
      <point x="290" y="698" type="line" smooth="yes"/>
      <point x="337" y="698"/>
      <point x="407" y="670"/>
      <point x="452" y="617"/>
      <point x="474" y="540"/>
      <point x="474" y="492" type="qcurve" smooth="yes"/>
      <point x="474" y="440"/>
      <point x="452" y="361"/>
      <point x="406" y="307"/>
      <point x="333" y="280"/>
      <point x="283" y="280" type="qcurve" smooth="yes"/>
      <point x="261" y="280"/>
      <point x="208" y="280"/>
      <point x="150" y="280"/>
      <point x="90" y="280"/>
      <point x="60" y="280" type="qcurve"/>
      <point x="60" y="0" type="line"/>
      <point x="41" y="0" type="line"/>
      <point x="41" y="698" type="line"/>
    </contour>
    <contour>
      <point x="60" y="299" type="line"/>
      <point x="104" y="299"/>
      <point x="185" y="299"/>
      <point x="255" y="299"/>
      <point x="282" y="299" type="qcurve" smooth="yes"/>
      <point x="343" y="299"/>
      <point x="419" y="343"/>
      <point x="455" y="430"/>
      <point x="455" y="492" type="qcurve" smooth="yes"/>
      <point x="455" y="551"/>
      <point x="421" y="634"/>
      <point x="349" y="678"/>
      <point x="291" y="678" type="qcurve" smooth="yes"/>
      <point x="60" y="678" type="line"/>
    </contour>
  </outline>
</glyph>
<glyph name="Q" format="1">
  <advance width="486"/>
  <unicode hex="0051"/>
  <outline>
    <contour>
      <point x="249" y="43" type="line" smooth="yes"/>
      <point x="249" y="2"/>
      <point x="280" y="-51"/>
      <point x="343" y="-76"/>
      <point x="391" y="-76" type="qcurve"/>
      <point x="389" y="-96" type="line"/>
      <point x="335" y="-96"/>
      <point x="264" y="-66"/>
      <point x="229" y="-4"/>
      <point x="229" y="43" type="qcurve" smooth="yes"/>
      <point x="229" y="173" type="line"/>
      <point x="249" y="173" type="line"/>
    </contour>
    <component base="O"/>
  </outline>
</glyph>
<glyph name="T" format="1">
  <advance width="408"/>
  <unicode hex="0054"/>
    <anchor name="bottom" x="204" y="0"/>
    <anchor name="top" x="204" y="735"/>
  <outline>
    <contour>
      <point x="210" y="678" type="line"/>
      <point x="210" y="0" type="line"/>
      <point x="192" y="0" type="line"/>
      <point x="191" y="678" type="line"/>
      <point x="2" y="678" type="line"/>
      <point x="2" y="698" type="line"/>
      <point x="404" y="698" type="line"/>
      <point x="404" y="678" type="line"/>
    </contour>
    <contour>
      <point x="204" y="0" type="move" name="bottom"/>
    </contour>
    <contour>
      <point x="204" y="735" type="move" name="top"/>
    </contour>
  </outline>
</glyph>
<glyph name="a" format="1">
  <advance width="444"/>
  <unicode hex="0061"/>
    <anchor name="top" x="222" y="545"/>
    <anchor name="ogonek" x="222" y="0"/>
  <outline>
    <contour>
      <point x="390" y="345" type="qcurve"/>
      <point x="390" y="380"/>
      <point x="362" y="438"/>
      <point x="335" y="457" type="qcurve" smooth="yes"/>
      <point x="313" y="472"/>
      <point x="251" y="488"/>
      <point x="200" y="488" type="qcurve"/>
      <point x="201" y="507" type="line"/>
      <point x="250" y="507"/>
      <point x="323" y="489"/>
      <point x="348" y="470" type="qcurve" smooth="yes"/>
      <point x="379" y="448"/>
      <point x="409" y="380"/>
      <point x="409" y="335" type="qcurve" smooth="yes"/>
      <point x="409" y="298"/>
      <point x="409" y="209"/>
      <point x="409" y="120"/>
      <point x="409" y="45"/>
      <point x="409" y="0"/>
      <point x="409" y="0" type="qcurve"/>
      <point x="409" y="0"/>
      <point x="366" y="-3"/>
      <point x="303" y="-7"/>
      <point x="244" y="-10"/>
      <point x="229" y="-10" type="qcurve" smooth="yes"/>
      <point x="157" y="-10"/>
      <point x="67" y="30"/>
      <point x="25" y="109"/>
      <point x="25" y="168" type="qcurve"/>
      <point x="25" y="168"/>
      <point x="25" y="193"/>
      <point x="25" y="226"/>
      <point x="25" y="251"/>
      <point x="25" y="251" type="qcurve"/>
      <point x="25" y="275"/>
      <point x="38" y="328"/>
      <point x="72" y="374"/>
      <point x="136" y="403"/>
      <point x="186" y="403" type="qcurve" smooth="yes"/>
      <point x="241" y="403"/>
      <point x="345" y="367"/>
    </contour>
    <contour>
      <point x="390" y="322" type="qcurve"/>
      <point x="355" y="340"/>
      <point x="288" y="368"/>
      <point x="222" y="383"/>
      <point x="185" y="383" type="qcurve" smooth="yes"/>
      <point x="134" y="383"/>
      <point x="71" y="347"/>
      <point x="43" y="286"/>
      <point x="43" y="249" type="qcurve" smooth="yes"/>
      <point x="43" y="228"/>
      <point x="43" y="179"/>
      <point x="43" y="162" type="qcurve" smooth="yes"/>
      <point x="43" y="135"/>
      <point x="58" y="80"/>
      <point x="97" y="33"/>
      <point x="171" y="7"/>
      <point x="229" y="8" type="qcurve"/>
      <point x="246" y="8"/>
      <point x="300" y="11"/>
      <point x="354" y="15"/>
      <point x="390" y="18"/>
      <point x="390" y="18" type="qcurve"/>
      <point x="390" y="18"/>
      <point x="390" y="62"/>
      <point x="390" y="131"/>
      <point x="390" y="209"/>
      <point x="390" y="278"/>
    </contour>
    <contour>
      <point x="222" y="545" type="move" name="top"/>
    </contour>
    <contour>
      <point x="222" y="0" type="move" name="ogonek"/>
    </contour>
  </outline>
</glyph>
<glyph name="b" format="1">
  <advance width="454"/>
  <unicode hex="0062"/>
  <outline>
    <contour>
      <point x="60" y="470" type="line"/>
      <point x="98" y="487"/>
      <point x="192" y="508"/>
      <point x="247" y="508" type="qcurve" smooth="yes"/>
      <point x="297" y="508"/>
      <point x="366" y="479"/>
      <point x="407" y="434"/>
      <point x="425" y="382"/>
      <point x="425" y="358" type="qcurve"/>
      <point x="425" y="358"/>
      <point x="425" y="320"/>
      <point x="425" y="263"/>
      <point x="425" y="207"/>
      <point x="425" y="168"/>
      <point x="425" y="168" type="qcurve"/>
      <point x="425" y="109"/>
      <point x="384" y="29"/>
      <point x="294" y="-11"/>
      <point x="220" y="-11" type="qcurve" smooth="yes"/>
      <point x="205" y="-11"/>
      <point x="147" y="-8"/>
      <point x="84" y="-4"/>
      <point x="41" y="-1"/>
      <point x="41" y="-1" type="qcurve"/>
      <point x="41" y="698" type="line"/>
      <point x="60" y="698" type="line"/>
    </contour>
    <contour>
      <point x="60" y="18" type="qcurve"/>
      <point x="60" y="18"/>
      <point x="96" y="15"/>
      <point x="149" y="11"/>
      <point x="203" y="7"/>
      <point x="220" y="7" type="qcurve"/>
      <point x="279" y="6"/>
      <point x="352" y="33"/>
      <point x="392" y="79"/>
      <point x="406" y="134"/>
      <point x="406" y="161" type="qcurve" smooth="yes"/>
      <point x="406" y="169"/>
      <point x="406" y="223"/>
      <point x="406" y="290"/>
      <point x="406" y="345"/>
      <point x="406" y="354" type="qcurve" smooth="yes"/>
      <point x="406" y="392"/>
      <point x="370" y="454"/>
      <point x="300" y="491"/>
      <point x="248" y="491" type="qcurve" smooth="yes"/>
      <point x="193" y="491"/>
      <point x="100" y="468"/>
      <point x="60" y="450" type="qcurve"/>
      <point x="60" y="450"/>
      <point x="60" y="403"/>
      <point x="60" y="326"/>
      <point x="60" y="234"/>
      <point x="60" y="142"/>
      <point x="60" y="65"/>
    </contour>
  </outline>
</glyph>
<glyph name="j" format="1">
  <advance width="181"/>
  <unicode hex="006A"/>
  <outline>
    <contour>
      <point x="131" y="-68" type="line" smooth="yes"/>
      <point x="131" y="-104"/>
      <point x="114" y="-156"/>
      <point x="96" y="-175" type="qcurve"/>
      <point x="83" y="-187"/>
      <point x="48" y="-206"/>
      <point x="25" y="-213" type="qcurve"/>
      <point x="19" y="-196" type="line"/>
      <point x="42" y="-187"/>
      <point x="65" y="-174"/>
      <point x="82" y="-161" type="qcurve"/>
      <point x="98" y="-147"/>
      <point x="114" y="-101"/>
      <point x="114" y="-67" type="qcurve" smooth="yes"/>
      <point x="114" y="481" type="line"/>
      <point x="29" y="481" type="line"/>
      <point x="29" y="499" type="line"/>
      <point x="131" y="499" type="line"/>
    </contour>
    <contour>
      <point x="139" y="691" type="qcurve" smooth="yes"/>
      <point x="139" y="684"/>
      <point x="131" y="674"/>
      <point x="123" y="674" type="qcurve" smooth="yes"/>
      <point x="116" y="674"/>
      <point x="106" y="684"/>
      <point x="106" y="691" type="qcurve" smooth="yes"/>
      <point x="106" y="699"/>
      <point x="116" y="707"/>
      <point x="123" y="707" type="qcurve" smooth="yes"/>
      <point x="131" y="707"/>
      <point x="139" y="699"/>
    </contour>
  </outline>
</glyph>
<glyph name="k" format="1">
  <advance width="424"/>
  <unicode hex="006B"/>
    <anchor name="bottom" x="212" y="0"/>
  <outline>
    <contour>
      <point x="173" y="378" type="line"/>
      <point x="226" y="291"/>
      <point x="343" y="101"/>
      <point x="407" y="0" type="qcurve"/>
      <point x="384" y="0" type="line"/>
      <point x="159" y="365" type="line"/>
      <point x="61" y="276" type="line"/>
      <point x="61" y="0" type="line"/>
      <point x="41" y="0" type="line"/>
      <point x="41" y="698" type="line"/>
      <point x="61" y="698" type="line"/>
      <point x="61" y="300" type="line"/>
      <point x="297" y="518" type="line"/>
      <point x="310" y="506" type="line"/>
    </contour>
    <contour>
      <point x="212" y="0" type="move" name="bottom"/>
    </contour>
  </outline>
</glyph>
<glyph name="m" format="1">
  <advance width="715"/>
  <unicode hex="006D"/>
  <outline>
    <contour>
      <point x="662" y="344" type="line" smooth="yes"/>
      <point x="662" y="401"/>
      <point x="627" y="468"/>
      <point x="556" y="496"/>
      <point x="502" y="492" type="qcurve" smooth="yes"/>
      <point x="460" y="488"/>
      <point x="381" y="458"/>
      <point x="351" y="441" type="qcurve"/>
      <point x="359" y="423"/>
      <point x="370" y="375"/>
      <point x="370" y="343" type="qcurve" smooth="yes"/>
      <point x="370" y="0" type="line"/>
      <point x="350" y="0" type="line"/>
      <point x="350" y="344" type="line" smooth="yes"/>
      <point x="350" y="401"/>
      <point x="315" y="468"/>
      <point x="244" y="496"/>
      <point x="191" y="492" type="qcurve" smooth="yes"/>
      <point x="146" y="488"/>
      <point x="85" y="465"/>
      <point x="57" y="451" type="qcurve"/>
      <point x="57" y="0" type="line"/>
      <point x="38" y="0" type="line"/>
      <point x="38" y="498" type="line"/>
      <point x="57" y="498" type="line"/>
      <point x="57" y="470" type="line"/>
      <point x="80" y="482"/>
      <point x="148" y="504"/>
      <point x="186" y="507" type="qcurve" smooth="yes"/>
      <point x="231" y="511"/>
      <point x="317" y="493"/>
      <point x="342" y="454" type="qcurve"/>
      <point x="371" y="474"/>
      <point x="461" y="505"/>
      <point x="498" y="507" type="qcurve"/>
      <point x="530" y="510"/>
      <point x="594" y="502"/>
      <point x="647" y="470"/>
      <point x="679" y="402"/>
      <point x="679" y="343" type="qcurve" smooth="yes"/>
      <point x="679" y="0" type="line"/>
      <point x="662" y="0" type="line"/>
    </contour>
  </outline>
</glyph>
<glyph name="n" format="1">
  <advance width="442"/>
  <unicode hex="006E"/>
    <anchor name="top" x="221" y="545"/>
    <anchor name="bottom" x="221" y="0"/>
  <outline>
    <contour>
      <point x="388" y="345" type="line" smooth="yes"/>
      <point x="388" y="402"/>
      <point x="347" y="469"/>
      <point x="270" y="496"/>
      <point x="216" y="493" type="qcurve" smooth="yes"/>
      <point x="173" y="491"/>
      <point x="85" y="466"/>
      <point x="57" y="452" type="qcurve"/>
      <point x="57" y="0" type="line"/>
      <point x="38" y="0" type="line"/>
      <point x="38" y="499" type="line"/>
      <point x="57" y="499" type="line"/>
      <point x="57" y="471" type="line"/>
      <point x="81" y="482"/>
      <point x="164" y="506"/>
      <point x="203" y="508" type="qcurve" smooth="yes"/>
      <point x="236" y="510"/>
      <point x="306" y="503"/>
      <point x="368" y="471"/>
      <point x="406" y="403"/>
      <point x="406" y="344" type="qcurve" smooth="yes"/>
      <point x="406" y="0" type="line"/>
      <point x="388" y="0" type="line"/>
    </contour>
    <contour>
      <point x="221" y="545" type="move" name="top"/>
    </contour>
    <contour>
      <point x="221" y="0" type="move" name="bottom"/>
    </contour>
  </outline>
</glyph>
<glyph name="o" format="1">
  <advance width="426"/>
  <unicode hex="006F"/>
    <anchor name="top" x="213" y="545"/>
    <anchor name="tonos" x="213" y="545"/>
  <outline>
    <contour>
      <point x="396" y="184" type="line" smooth="yes"/>
      <point x="396" y="99"/>
      <point x="306" y="-10"/>
      <point x="214" y="-10" type="qcurve" smooth="yes"/>
      <point x="150" y="-10"/>
      <point x="67" y="42"/>
      <point x="27" y="131"/>
      <point x="27" y="184" type="qcurve" smooth="yes"/>
      <point x="27" y="315" type="line" smooth="yes"/>
      <point x="27" y="410"/>
      <point x="125" y="510"/>
      <point x="214" y="510" type="qcurve" smooth="yes"/>
      <point x="303" y="510"/>
      <point x="396" y="406"/>
      <point x="396" y="315" type="qcurve" smooth="yes"/>
    </contour>
    <contour>
      <point x="377" y="319" type="line" smooth="yes"/>
      <point x="377" y="405"/>
      <point x="285" y="492"/>
      <point x="214" y="492" type="qcurve" smooth="yes"/>
      <point x="142" y="492"/>
      <point x="47" y="411"/>
      <point x="47" y="319" type="qcurve" smooth="yes"/>
      <point x="47" y="184" type="line" smooth="yes"/>
      <point x="47" y="135"/>
      <point x="84" y="55"/>
      <point x="159" y="8"/>
      <point x="214" y="8" type="qcurve" smooth="yes"/>
      <point x="271" y="8"/>
      <point x="343" y="54"/>
      <point x="377" y="134"/>
      <point x="377" y="184" type="qcurve" smooth="yes"/>
    </contour>
    <contour>
      <point x="213" y="545" type="move" name="top"/>
    </contour>
    <contour>
      <point x="213" y="545" type="move" name="tonos"/>
    </contour>
  </outline>
</glyph>
<glyph name="p" format="1">
  <advance width="439"/>
  <unicode hex="0070"/>
  <outline>
    <contour>
      <point x="408" y="175" type="line" smooth="yes"/>
      <point x="408" y="84"/>
      <point x="317" y="-12"/>
      <point x="234" y="-12" type="qcurve" smooth="yes"/>
      <point x="204" y="-12"/>
      <point x="131" y="10"/>
      <point x="71" y="51"/>
      <point x="59" y="80" type="qcurve"/>
      <point x="59" y="-212" type="line"/>
      <point x="39" y="-206" type="line"/>
      <point x="39" y="498" type="line"/>
      <point x="59" y="498" type="line"/>
      <point x="59" y="451" type="line"/>
      <point x="84" y="469"/>
      <point x="147" y="494"/>
      <point x="210" y="507"/>
      <point x="234" y="508" type="qcurve" smooth="yes"/>
      <point x="315" y="512"/>
      <point x="408" y="424"/>
      <point x="408" y="344" type="qcurve" smooth="yes"/>
    </contour>
    <contour>
      <point x="391" y="346" type="line" smooth="yes"/>
      <point x="391" y="398"/>
      <point x="351" y="462"/>
      <point x="288" y="492"/>
      <point x="251" y="493" type="qcurve" smooth="yes"/>
      <point x="223" y="494"/>
      <point x="150" y="478"/>
      <point x="81" y="448"/>
      <point x="59" y="426" type="qcurve"/>
      <point x="59" y="147" type="line" smooth="yes"/>
      <point x="59" y="99"/>
      <point x="118" y="33"/>
      <point x="207" y="2"/>
      <point x="251" y="4" type="qcurve" smooth="yes"/>
      <point x="316" y="8"/>
      <point x="391" y="92"/>
      <point x="391" y="168" type="qcurve" smooth="yes"/>
    </contour>
  </outline>
</glyph>
<glyph name="s" format="1">
  <advance width="405"/>
  <unicode hex="0073"/>
    <anchor name="bottom" x="202" y="0"/>
    <anchor name="top" x="202" y="545"/>
  <outline>
    <contour>
      <point x="323" y="460" type="line"/>
      <point x="323" y="460"/>
      <point x="294" y="476"/>
      <point x="243" y="492"/>
      <point x="208" y="492" type="qcurve" smooth="yes"/>
      <point x="186" y="492"/>
      <point x="138" y="481"/>
      <point x="117" y="470" type="qcurve"/>
      <point x="98" y="458"/>
      <point x="71" y="421"/>
      <point x="69" y="394" type="qcurve" smooth="yes"/>
      <point x="68" y="368"/>
      <point x="88" y="330"/>
      <point x="112" y="315" type="qcurve" smooth="yes"/>
      <point x="131" y="302"/>
      <point x="185" y="279"/>
      <point x="221" y="266" type="qcurve" smooth="yes"/>
      <point x="262" y="251"/>
      <point x="318" y="223"/>
      <point x="335" y="208" type="qcurve" smooth="yes"/>
      <point x="361" y="186"/>
      <point x="378" y="139"/>
      <point x="377" y="113" type="qcurve" smooth="yes"/>
      <point x="376" y="91"/>
      <point x="355" y="46"/>
      <point x="335" y="26" type="qcurve"/>
      <point x="313" y="7"/>
      <point x="248" y="-15"/>
      <point x="202" y="-15" type="qcurve" smooth="yes"/>
      <point x="172" y="-15"/>
      <point x="123" y="-5"/>
      <point x="103" y="4" type="qcurve" smooth="yes"/>
      <point x="77" y="17"/>
      <point x="39" y="50"/>
      <point x="25" y="68" type="qcurve"/>
      <point x="38" y="81" type="line"/>
      <point x="50" y="65"/>
      <point x="84" y="33"/>
      <point x="108" y="22" type="qcurve" smooth="yes"/>
      <point x="128" y="13"/>
      <point x="174" y="2"/>
      <point x="202" y="2" type="qcurve" smooth="yes"/>
      <point x="246" y="2"/>
      <point x="307" y="26"/>
      <point x="325" y="43" type="qcurve" smooth="yes"/>
      <point x="342" y="59"/>
      <point x="357" y="96"/>
      <point x="358" y="114" type="qcurve" smooth="yes"/>
      <point x="360" y="136"/>
      <point x="345" y="175"/>
      <point x="324" y="194" type="qcurve" smooth="yes"/>
      <point x="308" y="208"/>
      <point x="254" y="235"/>
      <point x="215" y="249" type="qcurve" smooth="yes"/>
      <point x="180" y="261"/>
      <point x="121" y="285"/>
      <point x="98" y="300" type="qcurve"/>
      <point x="75" y="317"/>
      <point x="49" y="363"/>
      <point x="50" y="395" type="qcurve" smooth="yes"/>
      <point x="52" y="426"/>
      <point x="81" y="469"/>
      <point x="103" y="483" type="qcurve" smooth="yes"/>
      <point x="126" y="497"/>
      <point x="182" y="510"/>
      <point x="208" y="510" type="qcurve" smooth="yes"/>
      <point x="246" y="510"/>
      <point x="301" y="492"/>
      <point x="333" y="475"/>
      <point x="334" y="474" type="qcurve"/>
    </contour>
    <contour>
      <point x="202" y="0" type="move" name="bottom"/>
    </contour>
    <contour>
      <point x="202" y="545" type="move" name="top"/>
    </contour>
  </outline>
</glyph>
<glyph name="t" format="1">
  <advance width="238"/>
  <unicode hex="0074"/>
    <anchor name="bottom" x="119" y="0"/>
    <anchor name="top" x="119" y="735"/>
  <outline>
    <contour>
      <point x="59" y="132" type="line" smooth="yes"/>
      <point x="59" y="77"/>
      <point x="101" y="21"/>
      <point x="151" y="4" type="qcurve"/>
      <point x="144" y="-13" type="line"/>
      <point x="89" y="3"/>
      <point x="39" y="73"/>
      <point x="39" y="132" type="qcurve" smooth="yes"/>
      <point x="39" y="698" type="line"/>
      <point x="59" y="698" type="line"/>
      <point x="59" y="499" type="line"/>
      <point x="215" y="499" type="line"/>
      <point x="206" y="481" type="line"/>
      <point x="59" y="481" type="line"/>
    </contour>
    <contour>
      <point x="119" y="0" type="move" name="bottom"/>
    </contour>
    <contour>
      <point x="119" y="735" type="move" name="top"/>
    </contour>
  </outline>
</glyph>
<glyph name="y" format="1">
  <advance width="459"/>
  <unicode hex="0079"/>
    <anchor name="top" x="229" y="545"/>
  <outline>
    <contour>
      <point x="429" y="499" type="line"/>
      <point x="413" y="486"/>
      <point x="403" y="450"/>
      <point x="403" y="417" type="qcurve" smooth="yes"/>
      <point x="403" y="-67" type="line" smooth="yes"/>
      <point x="403" y="-102"/>
      <point x="387" y="-155"/>
      <point x="368" y="-174" type="qcurve" smooth="yes"/>
      <point x="355" y="-186"/>
      <point x="321" y="-204"/>
      <point x="298" y="-212" type="qcurve"/>
      <point x="292" y="-195" type="line"/>
      <point x="315" y="-186"/>
      <point x="337" y="-173"/>
      <point x="354" y="-160" type="qcurve" smooth="yes"/>
      <point x="386" y="-133"/>
      <point x="386" y="-66" type="qcurve" smooth="yes"/>
      <point x="386" y="99" type="line"/>
      <point x="367" y="47"/>
      <point x="276" y="-4"/>
      <point x="229" y="-8" type="qcurve"/>
      <point x="201" y="-9"/>
      <point x="134" y="-2"/>
      <point x="73" y="31"/>
      <point x="34" y="99"/>
      <point x="34" y="157" type="qcurve" smooth="yes"/>
      <point x="34" y="499" type="line"/>
      <point x="54" y="499" type="line"/>
      <point x="54" y="156" type="line" smooth="yes"/>
      <point x="54" y="100"/>
      <point x="96" y="33"/>
      <point x="175" y="6"/>
      <point x="228" y="10" type="qcurve" smooth="yes"/>
      <point x="276" y="13"/>
      <point x="347" y="58"/>
      <point x="386" y="129"/>
      <point x="386" y="169" type="qcurve" smooth="yes"/>
      <point x="386" y="418" type="line" smooth="yes"/>
      <point x="386" y="442"/>
      <point x="391" y="473"/>
      <point x="404" y="498"/>
      <point x="416" y="510" type="qcurve"/>
    </contour>
    <contour>
      <point x="229" y="545" type="move" name="top"/>
    </contour>
  </outline>
</glyph>
<glyph name="braceleft" format="1">
  <advance width="235"/>
  <unicode hex="007B"/>
  <outline>
    <contour>
      <point x="124" y="515" type="line" smooth="yes"/>
      <point x="124" y="473"/>
      <point x="103" y="391"/>
      <point x="56" y="352" type="qcurve"/>
      <point x="103" y="313"/>
      <point x="124" y="231"/>
      <point x="124" y="189" type="qcurve" smooth="yes"/>
      <point x="124" y="76" type="line" smooth="yes"/>
      <point x="124" y="22"/>
      <point x="152" y="-47"/>
      <point x="189" y="-83"/>
      <point x="219" y="-98"/>
      <point x="220" y="-98" type="qcurve"/>
      <point x="216" y="-117" type="line"/>
      <point x="215" y="-117"/>
      <point x="181" y="-101"/>
      <point x="138" y="-60"/>
      <point x="106" y="16"/>
      <point x="106" y="76" type="qcurve" smooth="yes"/>
      <point x="106" y="189" type="line" smooth="yes"/>
      <point x="106" y="231"/>
      <point x="84" y="307"/>
      <point x="37" y="344" type="qcurve" smooth="yes"/>
      <point x="26" y="352" type="line"/>
      <point x="37" y="360" type="line" smooth="yes"/>
      <point x="84" y="396"/>
      <point x="106" y="473"/>
      <point x="106" y="515" type="qcurve" smooth="yes"/>
      <point x="106" y="628" type="line" smooth="yes"/>
      <point x="106" y="688"/>
      <point x="138" y="763"/>
      <point x="181" y="804"/>
      <point x="215" y="819"/>
      <point x="216" y="820" type="qcurve"/>
      <point x="219" y="801" type="line"/>
      <point x="218" y="801"/>
      <point x="189" y="787"/>
      <point x="152" y="750"/>
      <point x="124" y="682"/>
      <point x="124" y="628" type="qcurve" smooth="yes"/>
    </contour>
  </outline>
</glyph>
<glyph name="braceright" format="1">
  <advance width="238"/>
  <unicode hex="007D"/>
  <outline>
    <contour>
      <point x="20" y="820" type="line"/>
      <point x="22" y="819"/>
      <point x="55" y="804"/>
      <point x="97" y="763"/>
      <point x="129" y="688"/>
      <point x="129" y="628" type="qcurve" smooth="yes"/>
      <point x="129" y="515" type="line" smooth="yes"/>
      <point x="129" y="487"/>
      <point x="137" y="434"/>
      <point x="166" y="384"/>
      <point x="198" y="360" type="qcurve" smooth="yes"/>
      <point x="209" y="352" type="line"/>
      <point x="198" y="344" type="line" smooth="yes"/>
      <point x="166" y="320"/>
      <point x="137" y="269"/>
      <point x="129" y="217"/>
      <point x="129" y="189" type="qcurve" smooth="yes"/>
      <point x="129" y="76" type="line" smooth="yes"/>
      <point x="129" y="16"/>
      <point x="97" y="-60"/>
      <point x="54" y="-101"/>
      <point x="21" y="-117"/>
      <point x="19" y="-117" type="qcurve"/>
      <point x="15" y="-98" type="line"/>
      <point x="17" y="-98"/>
      <point x="46" y="-83"/>
      <point x="84" y="-47"/>
      <point x="112" y="22"/>
      <point x="112" y="76" type="qcurve" smooth="yes"/>
      <point x="112" y="189" type="line" smooth="yes"/>
      <point x="112" y="217"/>
      <point x="120" y="272"/>
      <point x="149" y="326"/>
      <point x="179" y="352" type="qcurve"/>
      <point x="149" y="378"/>
      <point x="120" y="432"/>
      <point x="112" y="487"/>
      <point x="112" y="515" type="qcurve" smooth="yes"/>
      <point x="112" y="628" type="line" smooth="yes"/>
      <point x="112" y="682"/>
      <point x="84" y="750"/>
      <point x="46" y="787"/>
      <point x="17" y="801"/>
      <point x="15" y="801" type="qcurve"/>
    </contour>
  </outline>
</glyph>
<glyph name="asciitilde" format="1">
  <advance width="266"/>
  <unicode hex="007E"/>
  <outline>
    <contour>
      <point x="278" y="307" type="line"/>
      <point x="260" y="291"/>
      <point x="225" y="278"/>
      <point x="208" y="278" type="qcurve" smooth="yes"/>
      <point x="182" y="278"/>
      <point x="132" y="297"/>
      <point x="85" y="317"/>
      <point x="63" y="317" type="qcurve" smooth="yes"/>
      <point x="48" y="317"/>
      <point x="16" y="304"/>
      <point x="-1" y="287" type="qcurve"/>
      <point x="-12" y="304" type="line"/>
      <point x="8" y="323"/>
      <point x="46" y="337"/>
      <point x="65" y="337" type="qcurve" smooth="yes"/>
      <point x="90" y="337"/>
      <point x="137" y="318"/>
      <point x="182" y="298"/>
      <point x="204" y="297" type="qcurve" smooth="yes"/>
      <point x="220" y="296"/>
      <point x="252" y="307"/>
      <point x="268" y="322" type="qcurve"/>
    </contour>
  </outline>
</glyph>
<glyph name="currency" format="1">
  <advance width="443"/>
  <unicode hex="00A4"/>
  <outline>
    <contour>
      <point x="329" y="378" type="line"/>
      <point x="346" y="359"/>
      <point x="365" y="310"/>
      <point x="365" y="283" type="qcurve" smooth="yes"/>
      <point x="365" y="255"/>
      <point x="346" y="206"/>
      <point x="329" y="186" type="qcurve"/>
      <point x="410" y="106" type="line"/>
      <point x="397" y="92" type="line"/>
      <point x="315" y="173" type="line"/>
      <point x="296" y="157"/>
      <point x="248" y="137"/>
      <point x="221" y="137" type="qcurve" smooth="yes"/>
      <point x="193" y="137"/>
      <point x="144" y="157"/>
      <point x="124" y="173" type="qcurve"/>
      <point x="44" y="92" type="line"/>
      <point x="31" y="106" type="line"/>
      <point x="111" y="186" type="line"/>
      <point x="95" y="206"/>
      <point x="76" y="255"/>
      <point x="76" y="283" type="qcurve" smooth="yes"/>
      <point x="76" y="310"/>
      <point x="95" y="359"/>
      <point x="111" y="378" type="qcurve"/>
      <point x="31" y="459" type="line"/>
      <point x="44" y="472" type="line"/>
      <point x="124" y="392" type="line"/>
      <point x="163" y="428"/>
      <point x="221" y="428" type="qcurve" smooth="yes"/>
      <point x="248" y="428"/>
      <point x="298" y="409"/>
      <point x="317" y="392" type="qcurve"/>
      <point x="397" y="472" type="line"/>
      <point x="410" y="459" type="line"/>
    </contour>
    <contour>
      <point x="221" y="157" type="qcurve" smooth="yes"/>
      <point x="255" y="157"/>
      <point x="311" y="191"/>
      <point x="345" y="248"/>
      <point x="345" y="283" type="qcurve" smooth="yes"/>
      <point x="345" y="317"/>
      <point x="311" y="373"/>
      <point x="255" y="407"/>
      <point x="221" y="407" type="qcurve" smooth="yes"/>
      <point x="187" y="407"/>
      <point x="129" y="373"/>
      <point x="95" y="317"/>
      <point x="95" y="283" type="qcurve" smooth="yes"/>
      <point x="95" y="248"/>
      <point x="129" y="191"/>
      <point x="187" y="157"/>
    </contour>
  </outline>
</glyph>
<glyph name="yen" format="1">
  <advance width="514"/>
  <unicode hex="00A5"/>
  <outline>
    <contour>
      <point x="97" y="217" type="line"/>
      <point x="97" y="235" type="line"/>
      <point x="247" y="235" type="line"/>
      <point x="247" y="341" type="line"/>
      <point x="21" y="698" type="line"/>
      <point x="44" y="698" type="line"/>
      <point x="256" y="361" type="line"/>
      <point x="469" y="698" type="line"/>
      <point x="492" y="698" type="line"/>
      <point x="264" y="341" type="line"/>
      <point x="264" y="235" type="line"/>
      <point x="416" y="235" type="line"/>
      <point x="416" y="217" type="line"/>
      <point x="264" y="217" type="line"/>
      <point x="264" y="131" type="line"/>
      <point x="416" y="131" type="line"/>
      <point x="416" y="111" type="line"/>
      <point x="264" y="111" type="line"/>
      <point x="264" y="0" type="line"/>
      <point x="247" y="0" type="line"/>
      <point x="247" y="111" type="line"/>
      <point x="97" y="111" type="line"/>
      <point x="97" y="131" type="line"/>
      <point x="247" y="131" type="line"/>
      <point x="247" y="217" type="line"/>
    </contour>
  </outline>
</glyph>
<glyph name="copyright" format="1">
  <advance width="693"/>
  <unicode hex="00A9"/>
  <outline>
    <contour>
      <point x="661" y="191" type="line" smooth="yes"/>
      <point x="661" y="106"/>
      <point x="580" y="-9"/>
      <point x="437" y="-67"/>
      <point x="345" y="-68" type="qcurve"/>
      <point x="254" y="-67"/>
      <point x="111" y="-9"/>
      <point x="30" y="106"/>
      <point x="30" y="191" type="qcurve" smooth="yes"/>
      <point x="30" y="319" type="line" smooth="yes"/>
      <point x="30" y="405"/>
      <point x="111" y="519"/>
      <point x="254" y="578"/>
      <point x="345" y="579" type="qcurve"/>
      <point x="437" y="578"/>
      <point x="580" y="519"/>
      <point x="661" y="405"/>
      <point x="661" y="319" type="qcurve" smooth="yes"/>
    </contour>
    <contour>
      <point x="644" y="316" type="line" smooth="yes"/>
      <point x="644" y="397"/>
      <point x="567" y="506"/>
      <point x="432" y="561"/>
      <point x="345" y="561" type="qcurve" smooth="yes"/>
      <point x="258" y="561"/>
      <point x="123" y="506"/>
      <point x="46" y="397"/>
      <point x="46" y="316" type="qcurve" smooth="yes"/>
      <point x="46" y="194" type="line" smooth="yes"/>
      <point x="46" y="114"/>
      <point x="123" y="4"/>
      <point x="258" y="-51"/>
      <point x="345" y="-52" type="qcurve"/>
      <point x="432" y="-51"/>
      <point x="567" y="4"/>
      <point x="644" y="114"/>
      <point x="644" y="194" type="qcurve" smooth="yes"/>
    </contour>
    <contour>
      <point x="492" y="404" type="line"/>
      <point x="469" y="415"/>
      <point x="424" y="428"/>
      <point x="383" y="435"/>
      <point x="362" y="435" type="qcurve" smooth="yes"/>
      <point x="316" y="435"/>
      <point x="249" y="408"/>
      <point x="231" y="388" type="qcurve"/>
      <point x="212" y="370"/>
      <point x="186" y="301"/>
      <point x="186" y="254" type="qcurve" smooth="yes"/>
      <point x="186" y="194"/>
      <point x="225" y="119"/>
      <point x="256" y="99" type="qcurve"/>
      <point x="280" y="85"/>
      <point x="341" y="75"/>
      <point x="370" y="75" type="qcurve" smooth="yes"/>
      <point x="384" y="75"/>
      <point x="418" y="79"/>
      <point x="456" y="88"/>
      <point x="497" y="100"/>
      <point x="519" y="109" type="qcurve"/>
      <point x="525" y="90" type="line"/>
      <point x="483" y="74"/>
      <point x="402" y="58"/>
      <point x="363" y="58" type="qcurve" smooth="yes"/>
      <point x="347" y="58"/>
      <point x="283" y="64"/>
      <point x="246" y="82" type="qcurve"/>
      <point x="210" y="103"/>
      <point x="165" y="186"/>
      <point x="165" y="249" type="qcurve" smooth="yes"/>
      <point x="165" y="325"/>
      <point x="209" y="402"/>
      <point x="252" y="428" type="qcurve"/>
      <point x="273" y="442"/>
      <point x="327" y="453"/>
      <point x="358" y="453" type="qcurve" smooth="yes"/>
      <point x="399" y="453"/>
      <point x="469" y="437"/>
      <point x="500" y="420" type="qcurve"/>
    </contour>
  </outline>
</glyph>
<glyph name="registered" format="1">
  <advance width="693"/>
  <unicode hex="00AE"/>
  <outline>
    <contour>
      <point x="661" y="191" type="line" smooth="yes"/>
      <point x="661" y="106"/>
      <point x="580" y="-9"/>
      <point x="437" y="-67"/>
      <point x="345" y="-68" type="qcurve"/>
      <point x="254" y="-67"/>
      <point x="111" y="-9"/>
      <point x="30" y="106"/>
      <point x="30" y="191" type="qcurve" smooth="yes"/>
      <point x="30" y="319" type="line" smooth="yes"/>
      <point x="30" y="405"/>
      <point x="111" y="519"/>
      <point x="254" y="578"/>
      <point x="345" y="579" type="qcurve"/>
      <point x="437" y="578"/>
      <point x="580" y="519"/>
      <point x="661" y="405"/>
      <point x="661" y="319" type="qcurve" smooth="yes"/>
    </contour>
    <contour>
      <point x="644" y="316" type="line" smooth="yes"/>
      <point x="644" y="397"/>
      <point x="567" y="506"/>
      <point x="432" y="561"/>
      <point x="345" y="561" type="qcurve" smooth="yes"/>
      <point x="258" y="561"/>
      <point x="123" y="506"/>
      <point x="46" y="397"/>
      <point x="46" y="316" type="qcurve" smooth="yes"/>
      <point x="46" y="194" type="line" smooth="yes"/>
      <point x="46" y="114"/>
      <point x="123" y="4"/>
      <point x="258" y="-51"/>
      <point x="345" y="-52" type="qcurve"/>
      <point x="432" y="-51"/>
      <point x="567" y="4"/>
      <point x="644" y="114"/>
      <point x="644" y="194" type="qcurve" smooth="yes"/>
    </contour>
    <contour>
      <point x="421" y="442" type="line" smooth="yes"/>
      <point x="445" y="442"/>
      <point x="483" y="431"/>
      <point x="511" y="406"/>
      <point x="526" y="362"/>
      <point x="526" y="328" type="qcurve" smooth="yes"/>
      <point x="526" y="267"/>
      <point x="481" y="218"/>
      <point x="440" y="215" type="qcurve"/>
      <point x="522" y="59" type="line"/>
      <point x="502" y="59" type="line"/>
      <point x="419" y="212" type="line"/>
      <point x="206" y="212" type="line"/>
      <point x="206" y="59" type="line"/>
      <point x="186" y="59" type="line"/>
      <point x="186" y="442" type="line"/>
    </contour>
    <contour>
      <point x="429" y="232" type="line" smooth="yes"/>
      <point x="474" y="232"/>
      <point x="508" y="278"/>
      <point x="508" y="327" type="qcurve"/>
      <point x="507" y="377"/>
      <point x="472" y="422"/>
      <point x="429" y="422" type="qcurve" smooth="yes"/>
      <point x="206" y="422" type="line"/>
      <point x="206" y="232" type="line"/>
    </contour>
  </outline>
</glyph>
<glyph name="paragraph" format="1">
  <advance width="603"/>
  <unicode hex="00B6"/>
  <outline>
    <contour>
      <point x="219" y="282" type="line" smooth="yes"/>
      <point x="169" y="282"/>
      <point x="97" y="309"/>
      <point x="51" y="363"/>
      <point x="29" y="442"/>
      <point x="29" y="493" type="qcurve" smooth="yes"/>
      <point x="29" y="542"/>
      <point x="51" y="619"/>
      <point x="96" y="672"/>
      <point x="165" y="700"/>
      <point x="212" y="700" type="qcurve" smooth="yes"/>
      <point x="560" y="700" type="line"/>
      <point x="560" y="1" type="line"/>
      <point x="540" y="1" type="line"/>
      <point x="540" y="679" type="line"/>
      <point x="461" y="681" type="line"/>
      <point x="461" y="1" type="line"/>
      <point x="442" y="1" type="line"/>
      <point x="442" y="282" type="line"/>
    </contour>
    <contour>
      <point x="211" y="680" type="line" smooth="yes"/>
      <point x="154" y="680"/>
      <point x="81" y="636"/>
      <point x="47" y="553"/>
      <point x="47" y="493" type="qcurve" smooth="yes"/>
      <point x="47" y="432"/>
      <point x="83" y="345"/>
      <point x="160" y="300"/>
      <point x="221" y="300" type="qcurve" smooth="yes"/>
      <point x="442" y="300" type="line"/>
      <point x="442" y="680" type="line"/>
    </contour>
  </outline>
</glyph>
<glyph name="cedilla" format="1">
  <advance width="266"/>
  <unicode hex="00B8"/>
  <outline>
    <contour>
      <point x="150" y="0" type="line"/>
      <point x="123" y="-46" type="line"/>
      <point x="140" y="-46"/>
      <point x="153" y="-46"/>
      <point x="157" y="-46" type="qcurve" smooth="yes"/>
      <point x="183" y="-46"/>
      <point x="224" y="-70"/>
      <point x="248" y="-111"/>
      <point x="248" y="-136" type="qcurve" smooth="yes"/>
      <point x="248" y="-182"/>
      <point x="190" y="-224"/>
      <point x="158" y="-226" type="qcurve"/>
      <point x="136" y="-226"/>
      <point x="103" y="-223"/>
      <point x="74" y="-217"/>
      <point x="57" y="-213" type="qcurve"/>
      <point x="58" y="-209"/>
      <point x="60" y="-205"/>
      <point x="62" y="-200"/>
      <point x="63" y="-196" type="qcurve"/>
      <point x="63" y="-196"/>
      <point x="89" y="-203"/>
      <point x="132" y="-208"/>
      <point x="157" y="-207" type="qcurve"/>
      <point x="166" y="-206"/>
      <point x="200" y="-197"/>
      <point x="229" y="-167"/>
      <point x="229" y="-136" type="qcurve" smooth="yes"/>
      <point x="229" y="-106"/>
      <point x="189" y="-67"/>
      <point x="157" y="-67" type="qcurve" smooth="yes"/>
      <point x="145" y="-67"/>
      <point x="116" y="-67"/>
      <point x="100" y="-67" type="qcurve"/>
      <point x="100" y="-46" type="line"/>
      <point x="129" y="0" type="line"/>
    </contour>
  </outline>
</glyph>
<glyph name="thorn" format="1">
  <advance width="443"/>
  <unicode hex="00FE"/>
  <outline>
    <contour>
      <point x="61" y="399" type="line"/>
      <point x="87" y="454"/>
      <point x="176" y="509"/>
      <point x="230" y="509" type="qcurve" smooth="yes"/>
      <point x="287" y="509"/>
      <point x="372" y="458"/>
      <point x="419" y="368"/>
      <point x="419" y="309" type="qcurve" smooth="yes"/>
      <point x="419" y="257"/>
      <point x="371" y="169"/>
      <point x="287" y="116"/>
      <point x="231" y="116" type="qcurve" smooth="yes"/>
      <point x="174" y="116"/>
      <point x="83" y="175"/>
      <point x="61" y="234" type="qcurve"/>
      <point x="61" y="0" type="line"/>
      <point x="41" y="0" type="line"/>
      <point x="41" y="698" type="line"/>
      <point x="61" y="698" type="line"/>
    </contour>
    <contour>
      <point x="232" y="493" type="qcurve"/>
      <point x="185" y="493"/>
      <point x="108" y="447"/>
      <point x="63" y="368"/>
      <point x="63" y="319" type="qcurve" smooth="yes"/>
      <point x="63" y="273"/>
      <point x="99" y="187"/>
      <point x="173" y="133"/>
      <point x="230" y="133" type="qcurve" smooth="yes"/>
      <point x="280" y="133"/>
      <point x="357" y="181"/>
      <point x="401" y="264"/>
      <point x="401" y="315" type="qcurve" smooth="yes"/>
      <point x="401" y="363"/>
      <point x="359" y="442"/>
      <point x="283" y="492"/>
    </contour>
  </outline>
</glyph>
<glyph name="eng" format="1">
  <advance width="442"/>
  <unicode hex="014B"/>
  <outline>
    <contour>
      <point x="406" y="-48" type="line" smooth="yes"/>
      <point x="406" y="-85"/>
      <point x="389" y="-137"/>
      <point x="370" y="-155" type="qcurve" smooth="yes"/>
      <point x="357" y="-168"/>
      <point x="322" y="-187"/>
      <point x="299" y="-195" type="qcurve"/>
      <point x="293" y="-177" type="line"/>
      <point x="316" y="-168"/>
      <point x="338" y="-156"/>
      <point x="356" y="-142" type="qcurve"/>
      <point x="372" y="-128"/>
      <point x="386" y="-81"/>
      <point x="386" y="-48" type="qcurve" smooth="yes"/>
      <point x="386" y="346" type="line" smooth="yes"/>
      <point x="386" y="403"/>
      <point x="346" y="469"/>
      <point x="270" y="496"/>
      <point x="216" y="493" type="qcurve" smooth="yes"/>
      <point x="171" y="491"/>
      <point x="85" y="467"/>
      <point x="57" y="453" type="qcurve"/>
      <point x="57" y="0" type="line"/>
      <point x="38" y="0" type="line"/>
      <point x="38" y="498" type="line"/>
      <point x="57" y="498" type="line"/>
      <point x="57" y="471" type="line"/>
      <point x="82" y="482"/>
      <point x="164" y="506"/>
      <point x="203" y="508" type="qcurve" smooth="yes"/>
      <point x="236" y="510"/>
      <point x="306" y="503"/>
      <point x="368" y="471"/>
      <point x="406" y="404"/>
      <point x="406" y="345" type="qcurve" smooth="yes"/>
    </contour>
  </outline>
</glyph>
<glyph name="dotlessj" format="1">
  <advance width="169"/>
  <unicode hex="0237"/>
    <anchor name="top" x="84" y="735"/>
  <outline>
    <contour>
      <point x="130" y="-68" type="line" smooth="yes"/>
      <point x="130" y="-104"/>
      <point x="113" y="-156"/>
      <point x="95" y="-175" type="qcurve"/>
      <point x="82" y="-187"/>
      <point x="47" y="-206"/>
      <point x="24" y="-213" type="qcurve"/>
      <point x="18" y="-196" type="line"/>
      <point x="41" y="-187"/>
      <point x="64" y="-174"/>
      <point x="81" y="-161" type="qcurve" smooth="yes"/>
      <point x="113" y="-134"/>
      <point x="113" y="-67" type="qcurve" smooth="yes"/>
      <point x="113" y="481" type="line"/>
      <point x="28" y="481" type="line"/>
      <point x="28" y="499" type="line"/>
      <point x="130" y="499" type="line"/>
    </contour>
    <contour>
      <point x="84" y="735" type="move" name="top"/>
    </contour>
  </outline>
</glyph>
<glyph name="ogonek" format="1">
  <advance width="266"/>
  <unicode hex="02DB"/>
  <outline>
    <contour>
      <point x="143" y="11" type="line"/>
      <point x="143" y="2" type="line"/>
      <point x="71" y="-123" type="line" smooth="yes"/>
      <point x="56" y="-150"/>
      <point x="70" y="-194"/>
      <point x="118" y="-214"/>
      <point x="150" y="-204" type="qcurve"/>
      <point x="163" y="-199"/>
      <point x="188" y="-190"/>
      <point x="209" y="-182"/>
      <point x="222" y="-178"/>
      <point x="222" y="-178" type="qcurve"/>
      <point x="228" y="-198" type="line"/>
      <point x="228" y="-198"/>
      <point x="204" y="-206"/>
      <point x="171" y="-217"/>
      <point x="143" y="-226"/>
      <point x="138" y="-227" type="qcurve"/>
      <point x="111" y="-231"/>
      <point x="68" y="-215"/>
      <point x="43" y="-182"/>
      <point x="42" y="-138"/>
      <point x="55" y="-114" type="qcurve"/>
      <point x="127" y="3" type="line"/>
      <point x="127" y="10" type="line"/>
    </contour>
  </outline>
</glyph>
<glyph name="tilde" format="1">
  <advance width="266"/>
  <unicode hex="02DC"/>
  <outline>
    <contour>
      <point x="220" y="704" type="line"/>
      <point x="240" y="704" type="line"/>
      <point x="240" y="695" type="line" smooth="yes"/>
      <point x="240" y="672"/>
      <point x="219" y="631"/>
      <point x="191" y="631" type="qcurve" smooth="yes"/>
      <point x="179" y="631"/>
      <point x="158" y="641"/>
      <point x="147" y="648" type="qcurve" smooth="yes"/>
      <point x="134" y="656"/>
      <point x="110" y="673"/>
      <point x="99" y="680" type="qcurve"/>
      <point x="90" y="685"/>
      <point x="68" y="689"/>
      <point x="59" y="683" type="qcurve" smooth="yes"/>
      <point x="50" y="677"/>
      <point x="46" y="653"/>
      <point x="46" y="643" type="qcurve" smooth="yes"/>
      <point x="46" y="635" type="line"/>
      <point x="26" y="635" type="line"/>
      <point x="26" y="643" type="line" smooth="yes"/>
      <point x="26" y="659"/>
      <point x="35" y="693"/>
      <point x="51" y="701" type="qcurve"/>
      <point x="68" y="711"/>
      <point x="105" y="700"/>
      <point x="120" y="690" type="qcurve" smooth="yes"/>
      <point x="130" y="683"/>
      <point x="148" y="671"/>
      <point x="157" y="664" type="qcurve"/>
      <point x="165" y="660"/>
      <point x="180" y="651"/>
      <point x="189" y="651" type="qcurve"/>
      <point x="209" y="650"/>
      <point x="220" y="679"/>
      <point x="220" y="695" type="qcurve" smooth="yes"/>
    </contour>
  </outline>
</glyph>
<glyph name="tonos" format="1">
  <advance width="266"/>
  <unicode hex="0384"/>
  <outline>
    <contour>
      <point x="169" y="686" type="qcurve"/>
      <point x="113" y="586" type="line"/>
      <point x="92" y="586" type="line"/>
      <point x="144" y="701" type="line"/>
      <point x="146" y="708"/>
      <point x="159" y="713"/>
      <point x="165" y="710" type="qcurve"/>
      <point x="172" y="706"/>
      <point x="173" y="692"/>
    </contour>
  </outline>
</glyph>
<glyph name="Gamma" format="1">
  <advance width="378"/>
  <unicode hex="0393"/>
  <outline>
    <contour>
      <point x="41" y="0" type="line"/>
      <point x="41" y="698" type="line"/>
      <point x="374" y="698" type="line"/>
      <point x="374" y="678" type="line"/>
      <point x="60" y="678" type="line"/>
      <point x="60" y="0" type="line"/>
    </contour>
  </outline>
</glyph>
<glyph name="Deltagreek" format="1">
  <advance width="542"/>
  <unicode hex="0394"/>
  <outline>
    <contour>
      <point x="524" y="0" type="line"/>
      <point x="20" y="0" type="line"/>
      <point x="260" y="698" type="line"/>
      <point x="279" y="698" type="line"/>
    </contour>
    <contour>
      <point x="48" y="20" type="line"/>
      <point x="497" y="20" type="line"/>
      <point x="270" y="673" type="line"/>
    </contour>
  </outline>
</glyph>
<glyph name="Sigma" format="1">
  <advance width="520"/>
  <unicode hex="03A3"/>
  <outline>
    <contour>
      <point x="330" y="20" type="line" smooth="yes"/>
      <point x="390" y="20"/>
      <point x="455" y="56"/>
      <point x="471" y="112" type="qcurve"/>
      <point x="491" y="106" type="line"/>
      <point x="475" y="50"/>
      <point x="406" y="0"/>
      <point x="347" y="0" type="qcurve" smooth="yes"/>
      <point x="25" y="0" type="line"/>
      <point x="250" y="383" type="line"/>
      <point x="41" y="700" type="line"/>
      <point x="468" y="700" type="line"/>
      <point x="459" y="680" type="line"/>
      <point x="76" y="680" type="line"/>
      <point x="273" y="382" type="line"/>
      <point x="59" y="20" type="line"/>
    </contour>
  </outline>
</glyph>
<glyph name="Omegagreek" format="1">
  <advance width="579"/>
  <unicode hex="03A9"/>
    <anchor name="tonos" x="96" y="700"/>
  <outline>
    <contour>
      <point x="533" y="196" type="line" smooth="yes"/>
      <point x="533" y="133"/>
      <point x="466" y="48"/>
      <point x="398" y="20" type="qcurve"/>
      <point x="537" y="20" type="line"/>
      <point x="546" y="0" type="line"/>
      <point x="318" y="0" type="line"/>
      <point x="318" y="20" type="line"/>
      <point x="352" y="20"/>
      <point x="418" y="44"/>
      <point x="451" y="67" type="qcurve" smooth="yes"/>
      <point x="484" y="90"/>
      <point x="517" y="155"/>
      <point x="517" y="196" type="qcurve" smooth="yes"/>
      <point x="517" y="501" type="line" smooth="yes"/>
      <point x="517" y="596"/>
      <point x="423" y="686"/>
      <point x="346" y="686" type="qcurve" smooth="yes"/>
      <point x="234" y="686" type="line" smooth="yes"/>
      <point x="156" y="686"/>
      <point x="64" y="594"/>
      <point x="64" y="502" type="qcurve" smooth="yes"/>
      <point x="64" y="196" type="line" smooth="yes"/>
      <point x="64" y="155"/>
      <point x="97" y="89"/>
      <point x="129" y="66" type="qcurve" smooth="yes"/>
      <point x="161" y="43"/>
      <point x="227" y="20"/>
      <point x="261" y="20" type="qcurve"/>
      <point x="261" y="0" type="line"/>
      <point x="33" y="0" type="line"/>
      <point x="40" y="20" type="line"/>
      <point x="179" y="20" type="line"/>
      <point x="131" y="39"/>
      <point x="73" y="91"/>
      <point x="47" y="158"/>
      <point x="47" y="196" type="qcurve" smooth="yes"/>
      <point x="47" y="502" type="line" smooth="yes"/>
      <point x="47" y="594"/>
      <point x="140" y="705"/>
      <point x="234" y="705" type="qcurve" smooth="yes"/>
      <point x="346" y="705" type="line" smooth="yes"/>
      <point x="439" y="705"/>
      <point x="533" y="594"/>
      <point x="533" y="502" type="qcurve" smooth="yes"/>
    </contour>
    <contour>
      <point x="96" y="700" type="move" name="tonos"/>
    </contour>
  </outline>
</glyph>
<glyph name="alpha" format="1">
  <advance width="437"/>
  <unicode hex="03B1"/>
    <anchor name="tonos" x="218" y="545"/>
  <outline>
    <contour>
      <point x="401" y="485" type="line"/>
      <point x="401" y="485"/>
      <point x="394" y="449"/>
      <point x="394" y="433" type="qcurve" smooth="yes"/>
      <point x="394" y="4" type="line"/>
      <point x="394" y="4"/>
      <point x="357" y="2"/>
      <point x="299" y="-2"/>
      <point x="234" y="-4"/>
      <point x="206" y="-4" type="qcurve" smooth="yes"/>
      <point x="155" y="-4"/>
      <point x="87" y="23"/>
      <point x="47" y="69"/>
      <point x="30" y="126"/>
      <point x="30" y="157" type="qcurve" smooth="yes"/>
      <point x="30" y="353" type="line" smooth="yes"/>
      <point x="30" y="413"/>
      <point x="75" y="480"/>
      <point x="147" y="506"/>
      <point x="186" y="506" type="qcurve" smooth="yes"/>
      <point x="232" y="506"/>
      <point x="331" y="476"/>
      <point x="377" y="453" type="qcurve"/>
      <point x="379" y="466"/>
      <point x="385" y="488"/>
      <point x="385" y="488" type="qcurve"/>
    </contour>
    <contour>
      <point x="49" y="162" type="line" smooth="yes"/>
      <point x="49" y="89"/>
      <point x="127" y="14"/>
      <point x="206" y="14" type="qcurve" smooth="yes"/>
      <point x="232" y="14"/>
      <point x="291" y="16"/>
      <point x="343" y="20"/>
      <point x="375" y="22"/>
      <point x="375" y="22" type="qcurve"/>
      <point x="375" y="432" type="line"/>
      <point x="325" y="461"/>
      <point x="228" y="487"/>
      <point x="181" y="487" type="qcurve" smooth="yes"/>
      <point x="137" y="487"/>
      <point x="78" y="455"/>
      <point x="49" y="394"/>
      <point x="49" y="350" type="qcurve" smooth="yes"/>
    </contour>
    <contour>
      <point x="218" y="545" type="move" name="tonos"/>
    </contour>
  </outline>
</glyph>
<glyph name="epsilon" format="1">
  <advance width="392"/>
  <unicode hex="03B5"/>
    <anchor name="tonos" x="196" y="545"/>
  <outline>
    <contour>
      <point x="300" y="474" type="line"/>
      <point x="280" y="482"/>
      <point x="218" y="492"/>
      <point x="199" y="492" type="qcurve" smooth="yes"/>
      <point x="129" y="492"/>
      <point x="65" y="426"/>
      <point x="65" y="385" type="qcurve" smooth="yes"/>
      <point x="65" y="347"/>
      <point x="112" y="300"/>
      <point x="152" y="300" type="qcurve" smooth="yes"/>
      <point x="300" y="300" type="line"/>
      <point x="293" y="282" type="line"/>
      <point x="187" y="282" type="line" smooth="yes"/>
      <point x="139" y="282"/>
      <point x="76" y="247"/>
      <point x="45" y="187"/>
      <point x="45" y="148" type="qcurve" smooth="yes"/>
      <point x="45" y="87"/>
      <point x="130" y="9"/>
      <point x="204" y="9" type="qcurve" smooth="yes"/>
      <point x="249" y="9"/>
      <point x="321" y="26"/>
      <point x="363" y="43"/>
      <point x="363" y="43" type="qcurve"/>
      <point x="370" y="23" type="line"/>
      <point x="340" y="12"/>
      <point x="251" y="-11"/>
      <point x="207" y="-11" type="qcurve" smooth="yes"/>
      <point x="139" y="-11"/>
      <point x="60" y="38"/>
      <point x="26" y="113"/>
      <point x="26" y="151" type="qcurve" smooth="yes"/>
      <point x="26" y="204"/>
      <point x="77" y="272"/>
      <point x="122" y="286" type="qcurve"/>
      <point x="91" y="293"/>
      <point x="58" y="327"/>
      <point x="46" y="369"/>
      <point x="46" y="385" type="qcurve" smooth="yes"/>
      <point x="46" y="416"/>
      <point x="79" y="473"/>
      <point x="146" y="509"/>
      <point x="197" y="509" type="qcurve" smooth="yes"/>
      <point x="222" y="509"/>
      <point x="274" y="502"/>
      <point x="300" y="495" type="qcurve"/>
    </contour>
    <contour>
      <point x="196" y="545" type="move" name="tonos"/>
    </contour>
  </outline>
</glyph>
<glyph name="eta" format="1">
  <advance width="442"/>
  <unicode hex="03B7"/>
    <anchor name="tonos" x="221" y="545"/>
  <outline>
    <contour>
      <point x="386" y="346" type="line" smooth="yes"/>
      <point x="386" y="403"/>
      <point x="346" y="469"/>
      <point x="270" y="496"/>
      <point x="216" y="493" type="qcurve" smooth="yes"/>
      <point x="173" y="491"/>
      <point x="85" y="467"/>
      <point x="56" y="453" type="qcurve"/>
      <point x="56" y="0" type="line"/>
      <point x="38" y="0" type="line"/>
      <point x="38" y="499" type="line"/>
      <point x="56" y="499" type="line"/>
      <point x="56" y="471" type="line"/>
      <point x="81" y="482"/>
      <point x="164" y="506"/>
      <point x="203" y="508" type="qcurve" smooth="yes"/>
      <point x="236" y="510"/>
      <point x="306" y="503"/>
      <point x="368" y="471"/>
      <point x="406" y="404"/>
      <point x="406" y="345" type="qcurve" smooth="yes"/>
      <point x="406" y="-211" type="line"/>
      <point x="386" y="-202" type="line"/>
    </contour>
    <contour>
      <point x="221" y="545" type="move" name="tonos"/>
    </contour>
  </outline>
</glyph>
<glyph name="theta" format="1">
  <advance width="438"/>
  <unicode hex="03B8"/>
  <outline>
    <contour>
      <point x="211" y="707" type="qcurve" smooth="yes"/>
      <point x="306" y="707"/>
      <point x="402" y="597"/>
      <point x="402" y="502" type="qcurve" smooth="yes"/>
      <point x="402" y="188" type="line" smooth="yes"/>
      <point x="402" y="94"/>
      <point x="309" y="-6"/>
      <point x="217" y="-6" type="qcurve" smooth="yes"/>
      <point x="123" y="-6"/>
      <point x="30" y="99"/>
      <point x="30" y="188" type="qcurve" smooth="yes"/>
      <point x="30" y="312" type="line" smooth="yes"/>
      <point x="30" y="363"/>
      <point x="70" y="428"/>
      <point x="98" y="448" type="qcurve"/>
      <point x="76" y="470"/>
      <point x="55" y="513"/>
      <point x="49" y="548"/>
      <point x="49" y="557" type="qcurve" smooth="yes"/>
      <point x="49" y="597"/>
      <point x="86" y="665"/>
      <point x="159" y="707"/>
    </contour>
    <contour>
      <point x="382" y="502" type="line" smooth="yes"/>
      <point x="382" y="590"/>
      <point x="293" y="690"/>
      <point x="211" y="690" type="qcurve" smooth="yes"/>
      <point x="168" y="690"/>
      <point x="104" y="655"/>
      <point x="69" y="595"/>
      <point x="69" y="559" type="qcurve" smooth="yes"/>
      <point x="69" y="534"/>
      <point x="90" y="483"/>
      <point x="135" y="439"/>
      <point x="209" y="405"/>
      <point x="313" y="385"/>
      <point x="382" y="385" type="qcurve"/>
    </contour>
    <contour>
      <point x="214" y="14" type="qcurve" smooth="yes"/>
      <point x="278" y="14"/>
      <point x="351" y="57"/>
      <point x="382" y="135"/>
      <point x="382" y="186" type="qcurve" smooth="yes"/>
      <point x="382" y="369" type="line"/>
      <point x="276" y="369"/>
      <point x="147" y="409"/>
      <point x="112" y="437" type="qcurve"/>
      <point x="84" y="418"/>
      <point x="47" y="355"/>
      <point x="47" y="311" type="qcurve" smooth="yes"/>
      <point x="47" y="185" type="line" smooth="yes"/>
      <point x="47" y="140"/>
      <point x="78" y="62"/>
      <point x="152" y="14"/>
    </contour>
  </outline>
</glyph>
<glyph name="lambda" format="1">
  <advance width="499"/>
  <unicode hex="03BB"/>
  <outline>
    <contour>
      <point x="400" y="113" type="line" smooth="yes"/>
      <point x="406" y="94"/>
      <point x="421" y="54"/>
      <point x="453" y="19"/>
      <point x="483" y="5" type="qcurve"/>
      <point x="483" y="5"/>
      <point x="478" y="0"/>
      <point x="472" y="-8" type="qcurve"/>
      <point x="445" y="5"/>
      <point x="412" y="36"/>
      <point x="390" y="79"/>
      <point x="380" y="111" type="qcurve" smooth="yes"/>
      <point x="374" y="133"/>
      <point x="352" y="204"/>
      <point x="327" y="288"/>
      <point x="302" y="371"/>
      <point x="281" y="441"/>
      <point x="268" y="483"/>
      <point x="268" y="483" type="qcurve"/>
      <point x="219" y="483"/>
      <point x="165" y="421"/>
      <point x="147" y="359" type="qcurve"/>
      <point x="147" y="357"/>
      <point x="131" y="304"/>
      <point x="107" y="222"/>
      <point x="80" y="131"/>
      <point x="56" y="50"/>
      <point x="41" y="-1"/>
      <point x="41" y="-1" type="qcurve"/>
      <point x="23" y="-1" type="line"/>
      <point x="23" y="-1"/>
      <point x="35" y="40"/>
      <point x="55" y="108"/>
      <point x="78" y="191"/>
      <point x="103" y="275"/>
      <point x="124" y="347"/>
      <point x="131" y="370" type="qcurve" smooth="yes"/>
      <point x="142" y="410"/>
      <point x="176" y="469"/>
      <point x="226" y="503"/>
      <point x="259" y="504" type="qcurve"/>
      <point x="237" y="576" type="line" smooth="yes"/>
      <point x="231" y="596"/>
      <point x="209" y="642"/>
      <point x="159" y="676"/>
      <point x="112" y="676" type="qcurve"/>
      <point x="116" y="695" type="line"/>
      <point x="151" y="695"/>
      <point x="200" y="674"/>
      <point x="231" y="641"/>
      <point x="250" y="604"/>
      <point x="256" y="588" type="qcurve"/>
    </contour>
  </outline>
</glyph>
<glyph name="nu" format="1">
  <advance width="423"/>
  <unicode hex="03BD"/>
  <outline>
    <contour>
      <point x="17" y="499" type="line"/>
      <point x="36" y="499" type="line"/>
      <point x="208" y="36" type="line"/>
      <point x="381" y="499" type="line"/>
      <point x="401" y="499" type="line"/>
      <point x="215" y="0" type="line"/>
      <point x="202" y="0" type="line"/>
    </contour>
  </outline>
</glyph>
<glyph name="xi" format="1">
  <advance width="426"/>
  <unicode hex="03BE"/>
  <outline>
    <contour>
      <point x="371" y="679" type="line"/>
      <point x="371" y="679"/>
      <point x="340" y="679"/>
      <point x="295" y="679"/>
      <point x="249" y="679"/>
      <point x="234" y="679" type="qcurve" smooth="yes"/>
      <point x="176" y="679"/>
      <point x="109" y="609"/>
      <point x="112" y="554" type="qcurve"/>
      <point x="116" y="511"/>
      <point x="153" y="454"/>
      <point x="214" y="414"/>
      <point x="252" y="399" type="qcurve"/>
      <point x="254" y="399"/>
      <point x="262" y="396"/>
      <point x="272" y="391"/>
      <point x="278" y="388" type="qcurve"/>
      <point x="273" y="370" type="line"/>
      <point x="249" y="378"/>
      <point x="203" y="385"/>
      <point x="178" y="385" type="qcurve" smooth="yes"/>
      <point x="126" y="385"/>
      <point x="70" y="349"/>
      <point x="48" y="289"/>
      <point x="48" y="251" type="qcurve" smooth="yes"/>
      <point x="48" y="162" type="line" smooth="yes"/>
      <point x="48" y="135"/>
      <point x="59" y="79"/>
      <point x="93" y="33"/>
      <point x="163" y="6"/>
      <point x="222" y="7" type="qcurve"/>
      <point x="236" y="7"/>
      <point x="278" y="9"/>
      <point x="327" y="12"/>
      <point x="378" y="15"/>
      <point x="400" y="18" type="qcurve"/>
      <point x="400" y="-211" type="line"/>
      <point x="380" y="-205" type="line"/>
      <point x="380" y="-1" type="line"/>
      <point x="355" y="-4"/>
      <point x="289" y="-8"/>
      <point x="233" y="-10"/>
      <point x="221" y="-10" type="qcurve" smooth="yes"/>
      <point x="148" y="-10"/>
      <point x="63" y="30"/>
      <point x="28" y="109"/>
      <point x="28" y="168" type="qcurve" smooth="yes"/>
      <point x="28" y="254" type="line" smooth="yes"/>
      <point x="28" y="278"/>
      <point x="38" y="331"/>
      <point x="68" y="376"/>
      <point x="128" y="405"/>
      <point x="178" y="405" type="qcurve" smooth="yes"/>
      <point x="181" y="405"/>
      <point x="197" y="404"/>
      <point x="201" y="404" type="qcurve"/>
      <point x="160" y="423"/>
      <point x="112" y="471"/>
      <point x="91" y="525"/>
      <point x="90" y="553" type="qcurve" smooth="yes"/>
      <point x="88" y="596"/>
      <point x="120" y="661"/>
      <point x="184" y="699"/>
      <point x="230" y="700" type="qcurve"/>
      <point x="260" y="700"/>
      <point x="331" y="700"/>
      <point x="381" y="700"/>
      <point x="381" y="700" type="qcurve"/>
    </contour>
  </outline>
</glyph>
<glyph name="phi" format="1">
  <advance width="582"/>
  <unicode hex="03C6"/>
  <outline>
    <contour>
      <point x="28" y="313" type="line" smooth="yes"/>
      <point x="28" y="389"/>
      <point x="86" y="483"/>
      <point x="144" y="502" type="qcurve"/>
      <point x="153" y="485" type="line"/>
      <point x="108" y="474"/>
      <point x="48" y="393"/>
      <point x="48" y="315" type="qcurve" smooth="yes"/>
      <point x="48" y="178" type="line" smooth="yes"/>
      <point x="48" y="123"/>
      <point x="91" y="48"/>
      <point x="167" y="10"/>
      <point x="217" y="10" type="qcurve" smooth="yes"/>
      <point x="281" y="10" type="line"/>
      <point x="281" y="402" type="line" smooth="yes"/>
      <point x="281" y="445"/>
      <point x="325" y="506"/>
      <point x="373" y="506" type="qcurve" smooth="yes"/>
      <point x="432" y="506"/>
      <point x="512" y="455"/>
      <point x="552" y="365"/>
      <point x="552" y="306" type="qcurve" smooth="yes"/>
      <point x="552" y="188" type="line" smooth="yes"/>
      <point x="552" y="98"/>
      <point x="462" y="-7"/>
      <point x="367" y="-7" type="qcurve" smooth="yes"/>
      <point x="297" y="-7" type="line"/>
      <point x="297" y="-211" type="line"/>
      <point x="281" y="-205" type="line"/>
      <point x="281" y="-7" type="line"/>
      <point x="217" y="-7" type="line" smooth="yes"/>
      <point x="121" y="-7"/>
      <point x="28" y="98"/>
      <point x="28" y="188" type="qcurve" smooth="yes"/>
    </contour>
    <contour>
      <point x="367" y="10" type="line" smooth="yes"/>
      <point x="452" y="10"/>
      <point x="536" y="103"/>
      <point x="536" y="185" type="qcurve" smooth="yes"/>
      <point x="536" y="316" type="line" smooth="yes"/>
      <point x="536" y="341"/>
      <point x="520" y="400"/>
      <point x="485" y="454"/>
      <point x="425" y="488"/>
      <point x="380" y="488" type="qcurve" smooth="yes"/>
      <point x="339" y="488"/>
      <point x="297" y="443"/>
      <point x="297" y="397" type="qcurve" smooth="yes"/>
      <point x="297" y="10" type="line"/>
    </contour>
  </outline>
</glyph>
<glyph name="omega" format="1">
  <advance width="593"/>
  <unicode hex="03C9"/>
    <anchor name="tonos" x="296" y="545"/>
  <outline>
    <contour>
      <point x="455" y="497" type="line"/>
      <point x="561" y="458"/>
      <point x="561" y="315" type="qcurve" smooth="yes"/>
      <point x="561" y="186" type="line" smooth="yes"/>
      <point x="561" y="87"/>
      <point x="481" y="-13"/>
      <point x="401" y="-13" type="qcurve" smooth="yes"/>
      <point x="381" y="-13"/>
      <point x="334" y="4"/>
      <point x="299" y="42"/>
      <point x="296" y="73" type="qcurve"/>
      <point x="293" y="42"/>
      <point x="257" y="4"/>
      <point x="211" y="-13"/>
      <point x="190" y="-13" type="qcurve" smooth="yes"/>
      <point x="111" y="-13"/>
      <point x="30" y="87"/>
      <point x="30" y="186" type="qcurve" smooth="yes"/>
      <point x="30" y="315" type="line" smooth="yes"/>
      <point x="30" y="386"/>
      <point x="83" y="478"/>
      <point x="137" y="497" type="qcurve"/>
      <point x="142" y="482" type="line"/>
      <point x="100" y="465"/>
      <point x="46" y="389"/>
      <point x="46" y="315" type="qcurve" smooth="yes"/>
      <point x="46" y="179" type="line" smooth="yes"/>
      <point x="46" y="93"/>
      <point x="117" y="5"/>
      <point x="186" y="5" type="qcurve" smooth="yes"/>
      <point x="235" y="5"/>
      <point x="284" y="58"/>
      <point x="286" y="109" type="qcurve"/>
      <point x="286" y="296" type="line"/>
      <point x="306" y="296" type="line"/>
      <point x="306" y="109" type="line"/>
      <point x="308" y="58"/>
      <point x="356" y="5"/>
      <point x="405" y="5" type="qcurve" smooth="yes"/>
      <point x="474" y="5"/>
      <point x="545" y="93"/>
      <point x="545" y="179" type="qcurve" smooth="yes"/>
      <point x="545" y="315" type="line" smooth="yes"/>
      <point x="545" y="389"/>
      <point x="491" y="465"/>
      <point x="449" y="482" type="qcurve"/>
    </contour>
    <contour>
      <point x="296" y="545" type="move" name="tonos"/>
    </contour>
  </outline>
</glyph>
<glyph name="quotedblright" format="1">
  <advance width="282"/>
  <unicode hex="201D"/>
  <outline>
    <contour>
      <point x="26" y="591" type="line"/>
      <point x="40" y="605"/>
      <point x="50" y="635"/>
      <point x="51" y="646" type="qcurve"/>
      <point x="46" y="648"/>
      <point x="40" y="655"/>
      <point x="40" y="661" type="qcurve" smooth="yes"/>
      <point x="40" y="669"/>
      <point x="50" y="679"/>
      <point x="56" y="679" type="qcurve" smooth="yes"/>
      <point x="64" y="679"/>
      <point x="73" y="669"/>
      <point x="73" y="661" type="qcurve" smooth="yes"/>
      <point x="73" y="641"/>
      <point x="61" y="612"/>
      <point x="46" y="594"/>
      <point x="34" y="585"/>
      <point x="34" y="585" type="qcurve"/>
    </contour>
    <contour>
      <point x="205" y="591" type="line"/>
      <point x="220" y="605"/>
      <point x="229" y="635"/>
      <point x="230" y="646" type="qcurve"/>
      <point x="226" y="648"/>
      <point x="219" y="655"/>
      <point x="219" y="661" type="qcurve" smooth="yes"/>
      <point x="219" y="669"/>
      <point x="229" y="679"/>
      <point x="236" y="679" type="qcurve" smooth="yes"/>
      <point x="244" y="679"/>
      <point x="252" y="669"/>
      <point x="252" y="661" type="qcurve" smooth="yes"/>
      <point x="252" y="641"/>
      <point x="241" y="612"/>
      <point x="225" y="594"/>
      <point x="214" y="585"/>
      <point x="214" y="585" type="qcurve"/>
    </contour>
  </outline>
</glyph>
<glyph name="quotedblbase" format="1">
  <advance width="292"/>
  <unicode hex="201E"/>
  <outline>
    <contour>
      <point x="31" y="-31" type="line"/>
      <point x="46" y="-17"/>
      <point x="56" y="14"/>
      <point x="57" y="24" type="qcurve"/>
      <point x="52" y="26"/>
      <point x="46" y="34"/>
      <point x="46" y="40" type="qcurve" smooth="yes"/>
      <point x="46" y="48"/>
      <point x="55" y="57"/>
      <point x="62" y="57" type="qcurve" smooth="yes"/>
      <point x="70" y="57"/>
      <point x="79" y="48"/>
      <point x="79" y="40" type="qcurve" smooth="yes"/>
      <point x="79" y="20"/>
      <point x="67" y="-9"/>
      <point x="52" y="-28"/>
      <point x="40" y="-37"/>
      <point x="40" y="-37" type="qcurve"/>
    </contour>
    <contour>
      <point x="211" y="-31" type="line"/>
      <point x="226" y="-17"/>
      <point x="235" y="14"/>
      <point x="236" y="24" type="qcurve"/>
      <point x="232" y="26"/>
      <point x="225" y="34"/>
      <point x="225" y="40" type="qcurve" smooth="yes"/>
      <point x="225" y="48"/>
      <point x="235" y="57"/>
      <point x="242" y="57" type="qcurve" smooth="yes"/>
      <point x="250" y="57"/>
      <point x="258" y="48"/>
      <point x="258" y="40" type="qcurve" smooth="yes"/>
      <point x="258" y="20"/>
      <point x="247" y="-9"/>
      <point x="231" y="-28"/>
      <point x="220" y="-37"/>
      <point x="220" y="-37" type="qcurve"/>
    </contour>
  </outline>
</glyph>
<glyph name="bullet" format="1">
  <advance width="269"/>
  <unicode hex="2022"/>
  <outline>
    <contour>
      <point x="206" y="408" type="qcurve" smooth="yes"/>
      <point x="236" y="376"/>
      <point x="236" y="335" type="qcurve" smooth="yes"/>
      <point x="236" y="315"/>
      <point x="220" y="278"/>
      <point x="206" y="263" type="qcurve" smooth="yes"/>
      <point x="175" y="232"/>
      <point x="133" y="232" type="qcurve" smooth="yes"/>
      <point x="90" y="232"/>
      <point x="60" y="263" type="qcurve" smooth="yes"/>
      <point x="30" y="293"/>
      <point x="30" y="335" type="qcurve" smooth="yes"/>
      <point x="30" y="378"/>
      <point x="60" y="408" type="qcurve" smooth="yes"/>
      <point x="90" y="439"/>
      <point x="133" y="439" type="qcurve" smooth="yes"/>
      <point x="175" y="439"/>
    </contour>
  </outline>
</glyph>
<glyph name="perthousand" format="1">
  <advance width="1053"/>
  <unicode hex="2030"/>
  <outline>
    <contour>
      <point x="66" y="0" type="line"/>
      <point x="603" y="698" type="line"/>
      <point x="629" y="698" type="line"/>
      <point x="92" y="0" type="line"/>
    </contour>
    <contour>
      <point x="173" y="712" type="qcurve" smooth="yes"/>
      <point x="213" y="712"/>
      <point x="278" y="673"/>
      <point x="318" y="607"/>
      <point x="318" y="566" type="qcurve" smooth="yes"/>
      <point x="318" y="526"/>
      <point x="278" y="460"/>
      <point x="213" y="421"/>
      <point x="173" y="421" type="qcurve" smooth="yes"/>
      <point x="133" y="421"/>
      <point x="66" y="460"/>
      <point x="27" y="526"/>
      <point x="27" y="566" type="qcurve" smooth="yes"/>
      <point x="27" y="607"/>
      <point x="66" y="673"/>
      <point x="133" y="712"/>
    </contour>
    <contour>
      <point x="173" y="692" type="qcurve" smooth="yes"/>
      <point x="138" y="692"/>
      <point x="81" y="658"/>
      <point x="47" y="601"/>
      <point x="47" y="566" type="qcurve" smooth="yes"/>
      <point x="47" y="532"/>
      <point x="81" y="475"/>
      <point x="138" y="441"/>
      <point x="173" y="441" type="qcurve" smooth="yes"/>
      <point x="207" y="441"/>
      <point x="263" y="475"/>
      <point x="297" y="532"/>
      <point x="297" y="566" type="qcurve" smooth="yes"/>
      <point x="297" y="601"/>
      <point x="263" y="658"/>
      <point x="207" y="692"/>
    </contour>
    <contour>
      <point x="532" y="276" type="qcurve" smooth="yes"/>
      <point x="573" y="276"/>
      <point x="638" y="237"/>
      <point x="677" y="171"/>
      <point x="677" y="131" type="qcurve" smooth="yes"/>
      <point x="677" y="91"/>
      <point x="638" y="25"/>
      <point x="573" y="-14"/>
      <point x="532" y="-14" type="qcurve" smooth="yes"/>
      <point x="492" y="-14"/>
      <point x="426" y="25"/>
      <point x="387" y="91"/>
      <point x="387" y="131" type="qcurve" smooth="yes"/>
      <point x="387" y="171"/>
      <point x="426" y="237"/>
      <point x="492" y="276"/>
    </contour>
    <contour>
      <point x="532" y="256" type="qcurve" smooth="yes"/>
      <point x="498" y="256"/>
      <point x="441" y="222"/>
      <point x="407" y="166"/>
      <point x="407" y="131" type="qcurve" smooth="yes"/>
      <point x="407" y="97"/>
      <point x="441" y="40"/>
      <point x="498" y="7"/>
      <point x="532" y="7" type="qcurve" smooth="yes"/>
      <point x="567" y="7"/>
      <point x="624" y="40"/>
      <point x="658" y="97"/>
      <point x="658" y="131" type="qcurve" smooth="yes"/>
      <point x="658" y="166"/>
      <point x="624" y="222"/>
      <point x="567" y="256"/>
    </contour>
    <contour>
      <point x="878" y="276" type="qcurve" smooth="yes"/>
      <point x="918" y="276"/>
      <point x="984" y="237"/>
      <point x="1023" y="171"/>
      <point x="1023" y="131" type="qcurve" smooth="yes"/>
      <point x="1023" y="91"/>
      <point x="984" y="25"/>
      <point x="918" y="-14"/>
      <point x="878" y="-14" type="qcurve" smooth="yes"/>
      <point x="838" y="-14"/>
      <point x="772" y="25"/>
      <point x="733" y="91"/>
      <point x="733" y="131" type="qcurve" smooth="yes"/>
      <point x="733" y="171"/>
      <point x="772" y="237"/>
      <point x="838" y="276"/>
    </contour>
    <contour>
      <point x="878" y="256" type="qcurve" smooth="yes"/>
      <point x="843" y="256"/>
      <point x="786" y="222"/>
      <point x="752" y="166"/>
      <point x="752" y="131" type="qcurve" smooth="yes"/>
      <point x="752" y="97"/>
      <point x="786" y="40"/>
      <point x="843" y="7"/>
      <point x="878" y="7" type="qcurve" smooth="yes"/>
      <point x="913" y="7"/>
      <point x="969" y="40"/>
      <point x="1002" y="97"/>
      <point x="1002" y="131" type="qcurve" smooth="yes"/>
      <point x="1002" y="166"/>
      <point x="969" y="222"/>
      <point x="913" y="256"/>
    </contour>
  </outline>
</glyph>
<glyph name="fi" format="1">
  <advance width="348"/>
  <unicode hex="FB01"/>
  <outline>
    <contour>
      <point x="39" y="560" type="line" smooth="yes"/>
      <point x="39" y="593"/>
      <point x="61" y="647"/>
      <point x="83" y="667" type="qcurve" smooth="yes"/>
      <point x="104" y="687"/>
      <point x="156" y="707"/>
      <point x="185" y="707" type="qcurve" smooth="yes"/>
      <point x="218" y="707"/>
      <point x="279" y="683"/>
      <point x="304" y="658" type="qcurve"/>
      <point x="292" y="645" type="line"/>
      <point x="268" y="668"/>
      <point x="212" y="690"/>
      <point x="185" y="690" type="qcurve" smooth="yes"/>
      <point x="151" y="690"/>
      <point x="92" y="656"/>
      <point x="57" y="595"/>
      <point x="59" y="554" type="qcurve"/>
      <point x="59" y="498" type="line"/>
      <point x="209" y="498" type="line"/>
      <point x="202" y="482" type="line"/>
      <point x="59" y="482" type="line"/>
      <point x="59" y="0" type="line"/>
      <point x="39" y="0" type="line"/>
    </contour>
    <contour>
      <point x="308" y="0" type="line"/>
      <point x="288" y="0" type="line"/>
      <point x="288" y="498" type="line"/>
      <point x="308" y="498" type="line"/>
    </contour>
  </outline>
</glyph>
<glyph name="tonoscomb" format="1">
  <advance width="266"/>
    <anchor name="tonos" x="133" y="750"/>
    <anchor name="_tonos" x="133" y="600"/>
    <anchor name="tonos.1" x="133" y="750"/>
    <anchor name="_tonos.1" x="133" y="600"/>
    <anchor name="tonos.2" x="133" y="750"/>
    <anchor name="_tonos.2" x="133" y="600"/>
    <anchor name="tonos.3" x="133" y="750"/>
    <anchor name="_tonos.3" x="133" y="600"/>
    <anchor name="tonos.4" x="133" y="750"/>
    <anchor name="_tonos.4" x="133" y="600"/>
    <anchor name="tonos.5" x="133" y="750"/>
    <anchor name="_tonos.5" x="133" y="600"/>
    <anchor name="tonos.6" x="133" y="750"/>
    <anchor name="_tonos.6" x="133" y="600"/>
    <anchor name="tonos.7" x="133" y="750"/>
    <anchor name="_tonos.7" x="133" y="600"/>
    <anchor name="tonos.8" x="133" y="750"/>
    <anchor name="_tonos.8" x="133" y="600"/>
    <anchor name="tonos.9" x="133" y="750"/>
    <anchor name="_tonos.9" x="133" y="600"/>
    <anchor name="tonos.10" x="133" y="750"/>
    <anchor name="_tonos.10" x="133" y="600"/>
    <anchor name="tonos.11" x="133" y="750"/>
    <anchor name="_tonos.11" x="133" y="600"/>
    <anchor name="tonos.12" x="133" y="750"/>
    <anchor name="_tonos.12" x="133" y="600"/>
    <anchor name="tonos.13" x="133" y="750"/>
    <anchor name="_tonos.13" x="133" y="600"/>
    <anchor name="tonos.14" x="133" y="750"/>
    <anchor name="_tonos.14" x="133" y="600"/>
  <outline>
    <contour>
      <point x="169" y="686" type="qcurve"/>
      <point x="113" y="586" type="line"/>
      <point x="92" y="586" type="line"/>
      <point x="144" y="701" type="line"/>
      <point x="146" y="708"/>
      <point x="159" y="713"/>
      <point x="165" y="710" type="qcurve"/>
      <point x="172" y="706"/>
      <point x="173" y="692"/>
    </contour>
    <contour>
      <point x="133" y="750" type="move" name="tonos"/>
    </contour>
    <contour>
      <point x="133" y="600" type="move" name="_tonos"/>
    </contour>
    <contour>
      <point x="133" y="750" type="move" name="tonos.1"/>
    </contour>
    <contour>
      <point x="133" y="600" type="move" name="_tonos.1"/>
    </contour>
    <contour>
      <point x="133" y="750" type="move" name="tonos.2"/>
    </contour>
    <contour>
      <point x="133" y="600" type="move" name="_tonos.2"/>
    </contour>
    <contour>
      <point x="133" y="750" type="move" name="tonos.3"/>
    </contour>
    <contour>
      <point x="133" y="600" type="move" name="_tonos.3"/>
    </contour>
    <contour>
      <point x="133" y="750" type="move" name="tonos.4"/>
    </contour>
    <contour>
      <point x="133" y="600" type="move" name="_tonos.4"/>
    </contour>
    <contour>
      <point x="133" y="750" type="move" name="tonos.5"/>
    </contour>
    <contour>
      <point x="133" y="600" type="move" name="_tonos.5"/>
    </contour>
    <contour>
      <point x="133" y="750" type="move" name="tonos.6"/>
    </contour>
    <contour>
      <point x="133" y="600" type="move" name="_tonos.6"/>
    </contour>
    <contour>
      <point x="133" y="750" type="move" name="tonos.7"/>
    </contour>
    <contour>
      <point x="133" y="600" type="move" name="_tonos.7"/>
    </contour>
    <contour>
      <point x="133" y="750" type="move" name="tonos.8"/>
    </contour>
    <contour>
      <point x="133" y="600" type="move" name="_tonos.8"/>
    </contour>
    <contour>
      <point x="133" y="750" type="move" name="tonos.9"/>
    </contour>
    <contour>
      <point x="133" y="600" type="move" name="_tonos.9"/>
    </contour>
    <contour>
      <point x="133" y="750" type="move" name="tonos.10"/>
    </contour>
    <contour>
      <point x="133" y="600" type="move" name="_tonos.10"/>
    </contour>
    <contour>
      <point x="133" y="750" type="move" name="tonos.11"/>
    </contour>
    <contour>
      <point x="133" y="600" type="move" name="_tonos.11"/>
    </contour>
    <contour>
      <point x="133" y="750" type="move" name="tonos.12"/>
    </contour>
    <contour>
      <point x="133" y="600" type="move" name="_tonos.12"/>
    </contour>
    <contour>
      <point x="133" y="750" type="move" name="tonos.13"/>
    </contour>
    <contour>
      <point x="133" y="600" type="move" name="_tonos.13"/>
    </contour>
    <contour>
      <point x="133" y="750" type="move" name="tonos.14"/>
    </contour>
    <contour>
      <point x="133" y="600" type="move" name="_tonos.14"/>
    </contour>
  </outline>
</glyph>
